<?xml version="1.0" encoding="UTF-8" standalone="no"?>
<svg width="203px" height="203px" viewBox="0 0 203 203" version="1.1" xmlns="http://www.w3.org/2000/svg" xmlns:xlink="http://www.w3.org/1999/xlink" xmlns:sketch="http://www.bohemiancoding.com/sketch/ns">
    <!-- Generator: Sketch 3.4 (15575) - http://www.bohemiancoding.com/sketch -->
    <title>ico-aprende</title>
    <desc>Created with Sketch.</desc>
    <defs></defs>
    <g id="Page-1" stroke="none" stroke-width="1" fill="none" fill-rule="evenodd" sketch:type="MSPage">
        <g id="ico-aprende" sketch:type="MSLayerGroup" transform="translate(1.000000, 1.000000)" stroke="#FEFEFE" stroke-width="3">
            <path d="M200.5004,100.5 C200.5004,155.728 155.7284,200.5 100.5004,200.5 C45.2714,200.5 0.5004,155.728 0.5004,100.5 C0.5004,45.272 45.2714,0.5 100.5004,0.5 C155.7284,0.5 200.5004,45.272 200.5004,100.5 L200.5004,100.5 Z" id="Stroke-1" sketch:type="MSShapeGroup"></path>
            <path d="M149.8656,33.7884 C129.7816,66.3024 94.7406,68.2714 76.6236,90.7864 C64.5076,105.8454 64.2786,121.1524 69.0686,135.9384 C69.8996,138.5034 71.2336,141.3094 72.3876,143.5064 C69.0386,145.8534 55.6196,155.0564 45.4076,159.1084 C41.4626,160.6704 45.1916,168.8154 48.5196,167.6304 C59.7386,163.6394 76.6746,152.0254 85.2296,143.8004 C87.0586,142.0424 88.8246,140.2314 90.5256,138.3854 C91.2556,137.5934 91.9476,136.7834 92.6546,135.9804 C119.6656,107.1224 134.5646,71.5104 134.5646,71.5104 C134.5646,71.5104 133.1256,126.9014 86.9876,161.0214 C96.9256,162.6514 123.8496,166.0344 142.2876,138.5034 C167.2856,101.1794 154.5546,26.1934 149.8656,33.7884 L149.8656,33.7884 Z" id="Stroke-3" sketch:type="MSShapeGroup"></path>
        </g>
    </g>
</svg>