<?xml version="1.0" encoding="UTF-8" standalone="no"?>
<svg width="18px" height="18px" viewBox="0 0 18 18" version="1.1" xmlns="http://www.w3.org/2000/svg" xmlns:xlink="http://www.w3.org/1999/xlink" xmlns:sketch="http://www.bohemiancoding.com/sketch/ns">
    <!-- Generator: Sketch 3.4 (15575) - http://www.bohemiancoding.com/sketch -->
    <title>ico-dsh-listas</title>
    <desc>Created with Sketch.</desc>
    <defs>
        <path id="path-1" d="M0,0.007 L17.993,0.007 L17.993,18 L0,18 L0,0.007 Z"></path>
        <path id="path-3" d="M0,0.007 L17.993,0.007 L17.993,18 L0,18 L0,0.007 Z"></path>
    </defs>
    <g id="Page-1" stroke="none" stroke-width="1" fill="none" fill-rule="evenodd" sketch:type="MSPage">
        <g id="ico-dsh-listas" sketch:type="MSLayerGroup">
            <g id="Group-3">
                <mask id="mask-2" sketch:name="Clip 2" fill="white">
                    <use xlink:href="#path-1"></use>
                </mask>
                <g id="Clip-2"></g>
                <path d="M16.8688,4.5049 L1.1248,4.5049 L1.1248,1.6939 C1.1248,1.3829 1.3758,1.1309 1.6868,1.1309 L16.3068,1.1309 C16.6168,1.1309 16.8688,1.3829 16.8688,1.6939 L16.8688,4.5049 Z M16.8688,16.3129 C16.8688,16.6239 16.6168,16.8749 16.3068,16.8749 L1.6868,16.8749 C1.3758,16.8749 1.1248,16.6239 1.1248,16.3129 L1.1248,5.6299 L16.8688,5.6299 L16.8688,16.3129 Z M16.8688,0.0069 L1.1248,0.0069 C0.5028,0.0069 -0.0002,0.5099 -0.0002,1.1309 L-0.0002,16.8749 C-0.0002,17.4969 0.5028,17.9999 1.1248,17.9999 L16.8688,17.9999 C17.4908,17.9999 17.9938,17.4969 17.9938,16.8749 L17.9938,1.1309 C17.9938,0.5099 17.4908,0.0069 16.8688,0.0069 L16.8688,0.0069 Z" id="Fill-1" fill="#FEFEFE" sketch:type="MSShapeGroup" mask="url(#mask-2)"></path>
            </g>
            <path d="M8.4344,2.2558 L5.0604,2.2558 C4.7494,2.2558 4.4984,2.5078 4.4984,2.8178 C4.4984,3.1288 4.7494,3.3808 5.0604,3.3808 L8.4344,3.3808 C8.7454,3.3808 8.9964,3.1288 8.9964,2.8178 C8.9964,2.5078 8.7454,2.2558 8.4344,2.2558" id="Fill-4" fill="#FEFEFE" sketch:type="MSShapeGroup"></path>
            <path d="M2.8115,2.2558 C2.5005,2.2558 2.2495,2.5078 2.2495,2.8178 C2.2495,3.1288 2.5005,3.3808 2.8115,3.3808 C3.1225,3.3808 3.3735,3.1288 3.3735,2.8178 C3.3735,2.5078 3.1225,2.2558 2.8115,2.2558" id="Fill-6" fill="#FEFEFE" sketch:type="MSShapeGroup"></path>
            <mask id="mask-4" sketch:name="Clip 9" fill="white">
                <use xlink:href="#path-3"></use>
            </mask>
            <g id="Clip-9"></g>
            <path d="M10.121,9.566 L13.495,9.566 L13.495,12.94 L10.121,12.94 L10.121,9.566 Z M9.559,14.064 L14.057,14.064 C14.368,14.064 14.62,13.812 14.62,13.502 L14.62,9.003 C14.62,8.693 14.368,8.441 14.057,8.441 L9.559,8.441 C9.248,8.441 8.997,8.693 8.997,9.003 L8.997,13.502 C8.997,13.812 9.248,14.064 9.559,14.064 L9.559,14.064 Z" id="Fill-8" fill="#FEFEFE" sketch:type="MSShapeGroup" mask="url(#mask-4)"></path>
            <path d="M3.9361,9.5656 L7.3101,9.5656 C7.6211,9.5656 7.8721,9.3136 7.8721,9.0036 C7.8721,8.6926 7.6211,8.4406 7.3101,8.4406 L3.9361,8.4406 C3.6251,8.4406 3.3741,8.6926 3.3741,9.0036 C3.3741,9.3136 3.6251,9.5656 3.9361,9.5656" id="Fill-10" fill="#FEFEFE" sketch:type="MSShapeGroup" mask="url(#mask-4)"></path>
            <path d="M3.9361,11.8148 L7.3101,11.8148 C7.6211,11.8148 7.8721,11.5628 7.8721,11.2528 C7.8721,10.9418 7.6211,10.6898 7.3101,10.6898 L3.9361,10.6898 C3.6251,10.6898 3.3741,10.9418 3.3741,11.2528 C3.3741,11.5628 3.6251,11.8148 3.9361,11.8148" id="Fill-11" fill="#FEFEFE" sketch:type="MSShapeGroup" mask="url(#mask-4)"></path>
            <path d="M3.9361,14.0639 L7.3101,14.0639 C7.6211,14.0639 7.8721,13.8119 7.8721,13.5019 C7.8721,13.1909 7.6211,12.9389 7.3101,12.9389 L3.9361,12.9389 C3.6251,12.9389 3.3741,13.1909 3.3741,13.5019 C3.3741,13.8119 3.6251,14.0639 3.9361,14.0639" id="Fill-12" fill="#FEFEFE" sketch:type="MSShapeGroup" mask="url(#mask-4)"></path>
        </g>
    </g>
</svg>