<?xml version="1.0" encoding="UTF-8" standalone="no"?>
<svg width="20px" height="20px" viewBox="0 0 20 20" version="1.1" xmlns="http://www.w3.org/2000/svg" xmlns:xlink="http://www.w3.org/1999/xlink" xmlns:sketch="http://www.bohemiancoding.com/sketch/ns">
    <!-- Generator: Sketch 3.4 (15575) - http://www.bohemiancoding.com/sketch -->
    <title>ico-dsh-ajustes</title>
    <desc>Created with Sketch.</desc>
    <defs>
        <path id="path-1" d="M0,0 L20,0 L20,20 L0,20 L0,0 Z"></path>
    </defs>
    <g id="Page-1" stroke="none" stroke-width="1" fill="none" fill-rule="evenodd" sketch:type="MSPage">
        <g id="ico-dsh-ajustes" sketch:type="MSLayerGroup">
            <mask id="mask-2" sketch:name="Clip 2" fill="white">
                <use xlink:href="#path-1"></use>
            </mask>
            <g id="Clip-2"></g>
            <path d="M9.9377,7.236 C8.3917,7.236 7.0857,8.524 7.0857,10.047 C7.0857,11.571 8.3917,12.859 9.9377,12.859 C11.4837,12.859 12.7897,11.571 12.7897,10.047 C12.7897,8.524 11.4837,7.236 9.9377,7.236 L9.9377,7.236 Z M9.9377,13.903 C7.8177,13.903 6.0257,12.137 6.0257,10.047 C6.0257,7.958 7.8177,6.192 9.9377,6.192 C12.0577,6.192 13.8487,7.958 13.8487,10.047 C13.8487,12.137 12.0577,13.903 9.9377,13.903 L9.9377,13.903 Z M8.1327,18.954 L11.9417,18.956 L12.3537,16.274 L12.5987,16.153 C13.1437,15.885 13.7057,15.608 14.1477,15.259 L14.3887,15.07 L17.0457,16.117 L18.9177,12.885 L16.5577,11.273 L16.5577,11 C16.5577,10.841 16.5807,10.683 16.6067,10.513 C16.6287,10.373 16.6537,10.222 16.6537,10.047 C16.6537,9.697 16.6537,9.465 16.5847,9.26 L16.4697,8.916 L18.7827,7.07 L16.8907,3.946 L14.1957,5.025 L13.9547,4.836 C13.5137,4.488 12.9757,4.223 12.4057,3.942 L12.1617,3.821 L11.7217,1.006 L8.0307,1.044 L7.6117,3.869 L7.3027,3.971 C6.9127,4.098 6.5547,4.342 6.1387,4.625 L5.5517,5.017 L2.9707,3.957 C2.9677,3.958 2.9517,3.965 2.9187,3.993 L1.0897,7.148 C1.1007,7.166 1.1157,7.184 1.1327,7.202 L3.3177,8.836 L3.3177,9.095 C3.3177,9.253 3.2947,9.412 3.2687,9.582 C3.2467,9.722 3.2207,9.873 3.2207,10.047 C3.2207,10.398 3.2207,10.629 3.2907,10.835 L3.4067,11.178 L1.0917,13.025 L2.9837,16.149 L5.6797,15.07 L5.9207,15.259 C6.3617,15.607 6.9247,15.885 7.4697,16.153 L7.7147,16.274 L8.1327,18.954 Z M11.9667,20 L8.1017,20 C7.5437,20 7.0887,19.595 7.0887,19.097 L6.7517,16.966 C6.3277,16.756 5.9017,16.533 5.5107,16.261 L3.3707,17.105 C2.9207,17.252 2.5007,17.171 2.2197,16.894 L2.1347,16.784 L0.2017,13.45 C-0.0233,13.009 0.0487,12.58 0.3837,12.25 L2.1977,10.8 C2.1617,10.559 2.1617,10.315 2.1617,10.047 C2.1617,9.813 2.1917,9.61 2.2217,9.422 C2.2257,9.393 2.2307,9.364 2.2347,9.336 L0.4377,7.987 C0.0387,7.599 -0.1403,7.058 0.1267,6.703 L2.1237,3.295 C2.2587,3.163 2.6697,2.76 3.3417,2.98 L5.4317,3.837 L5.5367,3.766 C5.9057,3.515 6.2587,3.275 6.6567,3.099 L6.9977,0.827 C6.9927,0.395 7.5367,0 8.0047,0 L11.8697,0 C12.1637,0 12.4667,0.155 12.6427,0.395 C12.7757,0.577 12.8287,0.798 12.7947,1.016 L13.1247,3.129 C13.5487,3.34 13.9737,3.562 14.3647,3.834 L16.5037,2.99 C16.9537,2.842 17.3737,2.924 17.6547,3.201 L17.7407,3.311 L19.6727,6.645 C19.8977,7.086 19.8257,7.514 19.4907,7.845 L17.6767,9.296 C17.7137,9.536 17.7137,9.78 17.7137,10.047 C17.7137,10.281 17.6837,10.484 17.6537,10.672 C17.6507,10.697 17.6457,10.721 17.6427,10.745 L19.6127,12.095 C20.0297,12.296 20.0957,12.903 19.8797,13.329 L17.9337,16.689 C17.7177,17.114 17.1157,17.312 16.6567,17.087 L14.5577,16.261 C14.1667,16.533 13.7407,16.756 13.3177,16.966 L12.9727,19.176 C12.9797,19.605 12.4347,20 11.9667,20 L11.9667,20 Z" id="Fill-1" fill="#FEFEFE" sketch:type="MSShapeGroup" mask="url(#mask-2)"></path>
        </g>
    </g>
</svg>