<?xml version="1.0" encoding="UTF-8" standalone="no"?>
<svg width="18px" height="20px" viewBox="0 0 18 20" version="1.1" xmlns="http://www.w3.org/2000/svg" xmlns:xlink="http://www.w3.org/1999/xlink" xmlns:sketch="http://www.bohemiancoding.com/sketch/ns">
    <!-- Generator: Sketch 3.4 (15575) - http://www.bohemiancoding.com/sketch -->
    <title>ico-dsh-proyectos</title>
    <desc>Created with Sketch.</desc>
    <defs></defs>
    <g id="Page-1" stroke="none" stroke-width="1" fill="none" fill-rule="evenodd" sketch:type="MSPage">
        <g id="ico-dsh-proyectos" sketch:type="MSLayerGroup" fill="#FEFEFE">
            <path d="M16.875,14.375 L0.625,14.375 L0.625,1.25 C0.625,0.905 0.905,0.625 1.25,0.625 L16.25,0.625 C16.595,0.625 16.875,0.905 16.875,1.25 L16.875,14.375 Z M16.875,18.75 C16.875,19.095 16.595,19.375 16.25,19.375 L1.25,19.375 C0.905,19.375 0.625,19.095 0.625,18.75 L0.625,15 L16.875,15 L16.875,18.75 Z M16.25,0 L1.25,0 C0.559,0 0,0.559 0,1.25 L0,18.75 C0,19.441 0.559,20 1.25,20 L16.25,20 C16.941,20 17.5,19.441 17.5,18.75 L17.5,1.25 C17.5,0.559 16.941,0 16.25,0 L16.25,0 Z" id="Fill-1" sketch:type="MSShapeGroup"></path>
            <path d="M14.6875,16.875 C14.8605,16.875 14.9995,17.015 14.9995,17.187 C14.9995,17.36 14.8605,17.5 14.6875,17.5 C14.5145,17.5 14.3755,17.36 14.3755,17.187 C14.3755,17.015 14.5145,16.875 14.6875,16.875 M14.6875,18.125 C15.2055,18.125 15.6245,17.705 15.6245,17.187 C15.6245,16.67 15.2055,16.25 14.6875,16.25 C14.1695,16.25 13.7505,16.67 13.7505,17.187 C13.7505,17.705 14.1695,18.125 14.6875,18.125" id="Fill-3" sketch:type="MSShapeGroup"></path>
            <path d="M11.5625,16.875 C11.7355,16.875 11.8745,17.015 11.8745,17.187 C11.8745,17.36 11.7355,17.5 11.5625,17.5 C11.3895,17.5 11.2505,17.36 11.2505,17.187 C11.2505,17.015 11.3895,16.875 11.5625,16.875 M11.5625,18.125 C12.0805,18.125 12.4995,17.705 12.4995,17.187 C12.4995,16.67 12.0805,16.25 11.5625,16.25 C11.0445,16.25 10.6255,16.67 10.6255,17.187 C10.6255,17.705 11.0445,18.125 11.5625,18.125" id="Fill-5" sketch:type="MSShapeGroup"></path>
            <path d="M8.4375,16.875 C8.6105,16.875 8.7495,17.015 8.7495,17.187 C8.7495,17.36 8.6105,17.5 8.4375,17.5 C8.2645,17.5 8.1255,17.36 8.1255,17.187 C8.1255,17.015 8.2645,16.875 8.4375,16.875 M8.4375,18.125 C8.9555,18.125 9.3745,17.705 9.3745,17.187 C9.3745,16.67 8.9555,16.25 8.4375,16.25 C7.9195,16.25 7.5005,16.67 7.5005,17.187 C7.5005,17.705 7.9195,18.125 8.4375,18.125" id="Fill-7" sketch:type="MSShapeGroup"></path>
            <path d="M8.75,12.5 C5.988,12.5 3.75,10.262 3.75,7.5 C3.75,4.738 5.988,2.5 8.75,2.5 C11.512,2.5 13.75,4.738 13.75,7.5 C13.75,10.262 11.512,12.5 8.75,12.5 M8.75,1.875 C5.643,1.875 3.125,4.393 3.125,7.5 C3.125,10.607 5.643,13.125 8.75,13.125 C11.857,13.125 14.375,10.607 14.375,7.5 C14.375,4.393 11.857,1.875 8.75,1.875" id="Fill-9" sketch:type="MSShapeGroup"></path>
            <path d="M8.8945,10.5005 L6.2165,8.4905 L6.7425,7.7905 L8.6055,9.1895 L10.8645,4.9825 L11.6355,5.3955 L8.8945,10.5005 Z" id="Fill-11" sketch:type="MSShapeGroup"></path>
        </g>
    </g>
</svg>