<?xml version="1.0" encoding="UTF-8" standalone="no"?>
<svg width="20px" height="20px" viewBox="0 0 20 20" version="1.1" xmlns="http://www.w3.org/2000/svg" xmlns:xlink="http://www.w3.org/1999/xlink" xmlns:sketch="http://www.bohemiancoding.com/sketch/ns">
    <!-- Generator: Sketch 3.4 (15575) - http://www.bohemiancoding.com/sketch -->
    <title>ico-dsh-calendario</title>
    <desc>Created with Sketch.</desc>
    <defs>
        <path id="path-1" d="M0,0 L20,0 L20,20 L0,20 L0,0 Z"></path>
        <path id="path-3" d="M0,0 L20,0 L20,20 L0,20 L0,0 Z"></path>
    </defs>
    <g id="Page-1" stroke="none" stroke-width="1" fill="none" fill-rule="evenodd" sketch:type="MSPage">
        <g id="ico-dsh-calendario" sketch:type="MSLayerGroup">
            <g id="Group-3">
                <mask id="mask-2" sketch:name="Clip 2" fill="white">
                    <use xlink:href="#path-1"></use>
                </mask>
                <g id="Clip-2"></g>
                <path d="M18.75,18.3331 C18.75,18.5631 18.563,18.7501 18.334,18.7501 L1.667,18.7501 C1.437,18.7501 1.25,18.5631 1.25,18.3331 L1.25,3.5411 C1.25,3.3121 1.437,3.1251 1.667,3.1251 L4.375,3.1251 L4.375,4.3751 C4.375,4.7201 4.655,5.0001 5,5.0001 C5.345,5.0001 5.625,4.7201 5.625,4.3751 L5.625,3.1251 L9.375,3.1251 L9.375,4.3751 C9.375,4.7201 9.655,5.0001 10,5.0001 C10.345,5.0001 10.625,4.7201 10.625,4.3751 L10.625,3.1251 L14.375,3.1251 L14.375,4.3751 C14.375,4.7201 14.654,5.0001 15,5.0001 C15.346,5.0001 15.625,4.7201 15.625,4.3751 L15.625,3.1251 L18.334,3.1251 C18.563,3.1251 18.75,3.3121 18.75,3.5411 L18.75,18.3331 Z M18.334,1.8751 L15.625,1.8751 L15.625,0.6251 C15.625,0.2791 15.346,0.0001 15,0.0001 C14.654,0.0001 14.375,0.2791 14.375,0.6251 L14.375,1.8751 L10.625,1.8751 L10.625,0.6251 C10.625,0.2791 10.345,0.0001 10,0.0001 C9.655,0.0001 9.375,0.2791 9.375,0.6251 L9.375,1.8751 L5.625,1.8751 L5.625,0.6251 C5.625,0.2791 5.345,0.0001 5,0.0001 C4.655,0.0001 4.375,0.2791 4.375,0.6251 L4.375,1.8751 L1.667,1.8751 C0.746,1.8751 0,2.6201 0,3.5411 L0,18.3331 C0,19.2541 0.746,20.0001 1.667,20.0001 L18.334,20.0001 C19.254,20.0001 20,19.2541 20,18.3331 L20,3.5411 C20,2.6201 19.254,1.8751 18.334,1.8751 L18.334,1.8751 Z" id="Fill-1" fill="#FEFEFE" sketch:type="MSShapeGroup" mask="url(#mask-2)"></path>
            </g>
            <mask id="mask-4" sketch:name="Clip 5" fill="white">
                <use xlink:href="#path-3"></use>
            </mask>
            <g id="Clip-5"></g>
            <path d="M4.375,7.5 L6.875,7.5 L6.875,9.375 L4.375,9.375 L4.375,7.5 Z" id="Fill-4" fill="#FEFEFE" sketch:type="MSShapeGroup" mask="url(#mask-4)"></path>
            <path d="M4.375,10.625 L6.875,10.625 L6.875,12.5 L4.375,12.5 L4.375,10.625 Z" id="Fill-6" fill="#FEFEFE" sketch:type="MSShapeGroup" mask="url(#mask-4)"></path>
            <path d="M4.375,13.75 L6.875,13.75 L6.875,15.625 L4.375,15.625 L4.375,13.75 Z" id="Fill-7" fill="#FEFEFE" sketch:type="MSShapeGroup" mask="url(#mask-4)"></path>
            <path d="M8.75,13.75 L11.25,13.75 L11.25,15.625 L8.75,15.625 L8.75,13.75 Z" id="Fill-8" fill="#FEFEFE" sketch:type="MSShapeGroup" mask="url(#mask-4)"></path>
            <path d="M8.75,10.625 L11.25,10.625 L11.25,12.5 L8.75,12.5 L8.75,10.625 Z" id="Fill-9" fill="#FEFEFE" sketch:type="MSShapeGroup" mask="url(#mask-4)"></path>
            <path d="M8.75,7.5 L11.25,7.5 L11.25,9.375 L8.75,9.375 L8.75,7.5 Z" id="Fill-10" fill="#FEFEFE" sketch:type="MSShapeGroup" mask="url(#mask-4)"></path>
            <path d="M13.125,13.75 L15.625,13.75 L15.625,15.625 L13.125,15.625 L13.125,13.75 Z" id="Fill-11" fill="#FEFEFE" sketch:type="MSShapeGroup" mask="url(#mask-4)"></path>
            <path d="M13.125,10.625 L15.625,10.625 L15.625,12.5 L13.125,12.5 L13.125,10.625 Z" id="Fill-12" fill="#FEFEFE" sketch:type="MSShapeGroup" mask="url(#mask-4)"></path>
            <path d="M13.125,7.5 L15.625,7.5 L15.625,9.375 L13.125,9.375 L13.125,7.5 Z" id="Fill-13" fill="#FEFEFE" sketch:type="MSShapeGroup" mask="url(#mask-4)"></path>
        </g>
    </g>
</svg>