<?xml version="1.0" encoding="UTF-8" standalone="no"?>
<svg width="15px" height="15px" viewBox="0 0 15 15" version="1.1" xmlns="http://www.w3.org/2000/svg" xmlns:xlink="http://www.w3.org/1999/xlink" xmlns:sketch="http://www.bohemiancoding.com/sketch/ns">
    <!-- Generator: Sketch 3.4 (15575) - http://www.bohemiancoding.com/sketch -->
    <title>ico-comment</title>
    <desc>Created with Sketch.</desc>
    <defs>
        <path id="path-1" d="M0,0 L15,0 L15,15 L0,15 L0,0 Z"></path>
    </defs>
    <g id="Page-1" stroke="none" stroke-width="1" fill="none" fill-rule="evenodd" sketch:type="MSPage">
        <g id="ico-comment" sketch:type="MSLayerGroup">
            <g id="Group-3">
                <mask id="mask-2" sketch:name="Clip 2" fill="white">
                    <use xlink:href="#path-1"></use>
                </mask>
                <g id="Clip-2"></g>
                <path d="M14.0625,9.8438 C14.0625,10.1028 13.8525,10.3128 13.5935,10.3128 L7.2435,10.3128 C6.7965,10.3128 6.4455,10.6638 6.4455,10.6638 L3.7495,13.3598 L3.7495,10.7808 C3.7495,10.5218 3.5405,10.3128 3.2815,10.3128 L1.4065,10.3128 C1.1475,10.3128 0.9375,10.1028 0.9375,9.8438 L0.9375,1.4058 C0.9375,1.1468 1.1475,0.9378 1.4065,0.9378 L13.5935,0.9378 C13.8525,0.9378 14.0625,1.1468 14.0625,1.4058 L14.0625,9.8438 Z M14.0625,-0.0002 L0.9375,-0.0002 C0.4195,-0.0002 -0.0005,0.4198 -0.0005,0.9378 L-0.0005,10.3128 C-0.0005,10.8308 0.4195,11.2498 0.9375,11.2498 L2.8125,11.2498 L2.8125,14.5308 C2.8125,14.7208 2.9265,14.8918 3.1015,14.9648 C3.1595,14.9888 3.2205,14.9998 3.2815,14.9998 C3.4035,14.9998 3.5225,14.9528 3.6125,14.8628 L7.2255,11.2498 L14.0625,11.2498 C14.5805,11.2498 14.9995,10.8308 14.9995,10.3128 L14.9995,0.9378 C14.9995,0.4198 14.5805,-0.0002 14.0625,-0.0002 L14.0625,-0.0002 Z" id="Fill-1" fill="#FEFEFE" sketch:type="MSShapeGroup" mask="url(#mask-2)"></path>
            </g>
            <path d="M4.2187,4.2188 L7.0317,4.2188 C7.2907,4.2188 7.4997,4.0088 7.4997,3.7498 C7.4997,3.4908 7.2907,3.2818 7.0317,3.2818 L4.2187,3.2818 C3.9597,3.2818 3.7497,3.4908 3.7497,3.7498 C3.7497,4.0088 3.9597,4.2188 4.2187,4.2188" id="Fill-4" fill="#FEFEFE" sketch:type="MSShapeGroup"></path>
            <path d="M10.7812,5.1563 L4.2192,5.1563 C3.9592,5.1563 3.7502,5.3663 3.7502,5.6253 C3.7502,5.8843 3.9592,6.0933 4.2192,6.0933 L10.7812,6.0933 C11.0402,6.0933 11.2502,5.8843 11.2502,5.6253 C11.2502,5.3663 11.0402,5.1563 10.7812,5.1563" id="Fill-6" fill="#FEFEFE" sketch:type="MSShapeGroup"></path>
            <path d="M8.9062,7.0313 L4.2192,7.0313 C3.9592,7.0313 3.7502,7.2413 3.7502,7.5003 C3.7502,7.7593 3.9592,7.9683 4.2192,7.9683 L8.9062,7.9683 C9.1652,7.9683 9.3752,7.7593 9.3752,7.5003 C9.3752,7.2413 9.1652,7.0313 8.9062,7.0313" id="Fill-8" fill="#FEFEFE" sketch:type="MSShapeGroup"></path>
        </g>
    </g>
</svg>