<?xml version="1.0" encoding="UTF-8" standalone="no"?>
<svg width="21px" height="21px" viewBox="0 0 21 21" version="1.1" xmlns="http://www.w3.org/2000/svg" xmlns:xlink="http://www.w3.org/1999/xlink" xmlns:sketch="http://www.bohemiancoding.com/sketch/ns">
    <!-- Generator: Sketch 3.4 (15575) - http://www.bohemiancoding.com/sketch -->
    <title>ico-dsh-notificaciones</title>
    <desc>Created with Sketch.</desc>
    <defs></defs>
    <g id="Page-1" stroke="none" stroke-width="1" fill="none" fill-rule="evenodd" sketch:type="MSPage">
        <g id="ico-dsh-notificaciones" sketch:type="MSLayerGroup" fill="#FEFEFE">
            <path d="M10.5,1 C5.262,1 1,5.262 1,10.5 C1,15.738 5.262,20 10.5,20 C15.738,20 20,15.738 20,10.5 C20,5.262 15.738,1 10.5,1 M10.5,21 C4.71,21 0,16.29 0,10.5 C0,4.71 4.71,0 10.5,0 C16.29,0 21,4.71 21,10.5 C21,16.29 16.29,21 10.5,21" id="Fill-1" sketch:type="MSShapeGroup"></path>
            <path d="M11.3477,12.3394 L9.6797,12.3394 L9.3307,5.6604 L11.6967,5.6604 L11.3477,12.3394 Z M9.3037,14.6774 C9.3037,14.2944 9.4067,14.0054 9.6117,13.8094 C9.8167,13.6134 10.1157,13.5154 10.5067,13.5154 C10.8847,13.5154 11.1777,13.6154 11.3847,13.8164 C11.5927,14.0164 11.6967,14.3034 11.6967,14.6774 C11.6967,15.0374 11.5917,15.3204 11.3817,15.5284 C11.1717,15.7354 10.8807,15.8394 10.5067,15.8394 C10.1237,15.8394 9.8277,15.7374 9.6187,15.5354 C9.4087,15.3324 9.3037,15.0464 9.3037,14.6774 L9.3037,14.6774 Z" id="Fill-3" sketch:type="MSShapeGroup"></path>
        </g>
    </g>
</svg>