<?xml version="1.0" encoding="UTF-8" standalone="no"?>
<svg width="20px" height="20px" viewBox="0 0 20 20" version="1.1" xmlns="http://www.w3.org/2000/svg" xmlns:xlink="http://www.w3.org/1999/xlink" xmlns:sketch="http://www.bohemiancoding.com/sketch/ns">
    <!-- Generator: Sketch 3.4 (15575) - http://www.bohemiancoding.com/sketch -->
    <title>ico-dsh-identificaciones</title>
    <desc>Created with Sketch.</desc>
    <defs>
        <path id="path-1" d="M0,0.999 L20,0.999 L20,21 L0,21"></path>
    </defs>
    <g id="Page-1" stroke="none" stroke-width="1" fill="none" fill-rule="evenodd" sketch:type="MSPage">
        <g id="ico-dsh-identificaciones" sketch:type="MSLayerGroup" transform="translate(0.000000, -1.000000)">
            <path d="M19.4728,17.9178 L15.9028,14.3558 C15.8848,14.3378 15.8638,14.3248 15.8448,14.3118 C15.5238,14.8058 15.1398,15.2738 14.7078,15.7068 C14.2748,16.1398 13.8058,16.5238 13.3068,16.8448 C13.3248,16.8638 13.3378,16.8848 13.3558,16.9028 L16.9188,20.4718 C17.6238,21.1758 18.7688,21.1758 19.4718,20.4718 C20.1758,19.7678 20.1758,18.6228 19.4728,17.9178" id="Fill-1" fill="#FEFEFE" sketch:type="MSShapeGroup"></path>
            <g id="Group-5">
                <mask id="mask-2" sketch:name="Clip 4" fill="white">
                    <use xlink:href="#path-1"></use>
                </mask>
                <g id="Clip-4"></g>
                <path d="M3.174,14.4593 C0.338,11.6233 0.339,7.0063 3.175,4.1733 C6.011,1.3383 10.625,1.3383 13.46,4.1723 C16.294,7.0063 16.293,11.6183 13.46,14.4583 C10.624,17.2853 6.011,17.2953 3.174,14.4593 M14.199,3.4313 C10.955,0.1883 5.679,0.1883 2.436,3.4323 C-0.811,6.6743 -0.812,11.9543 2.433,15.1983 C5.678,18.4403 10.955,18.4403 14.199,15.1973 C17.442,11.9543 17.442,6.6743 14.199,3.4313" id="Fill-3" fill="#FEFEFE" sketch:type="MSShapeGroup" mask="url(#mask-2)"></path>
            </g>
            <path d="M12.4115,10.842 L10.8925,9.341 L10.5035,9.341 C10.4785,9.053 10.4355,8.771 10.3555,8.514 L11.3975,7.098 C11.5115,6.943 11.4785,6.724 11.3225,6.609 C11.1665,6.495 10.9475,6.528 10.8335,6.684 L10.0235,7.785 C9.7835,7.385 9.4765,7.066 9.1175,6.875 C9.1635,6.781 9.1905,6.677 9.1905,6.568 C9.1905,6.137 8.7985,5.788 8.3155,5.788 C7.8305,5.788 7.4395,6.137 7.4395,6.568 C7.4395,6.677 7.4665,6.781 7.5115,6.875 C7.1535,7.066 6.8465,7.385 6.6065,7.785 L5.7975,6.684 C5.6825,6.528 5.4635,6.494 5.3075,6.609 C5.1515,6.724 5.1185,6.942 5.2325,7.098 L6.2745,8.514 C6.1945,8.772 6.1505,9.053 6.1265,9.341 L5.7375,9.341 L4.2185,10.842 C4.0815,10.978 4.0795,11.2 4.2165,11.337 C4.3515,11.475 4.5735,11.476 4.7105,11.34 L6.0245,10.041 L6.1265,10.041 C6.1505,10.329 6.1945,10.61 6.2735,10.868 L5.2325,12.283 C5.1175,12.44 5.1505,12.658 5.3065,12.773 C5.4635,12.887 5.6825,12.854 5.7965,12.698 L6.6065,11.597 C7.0125,12.277 7.6235,12.72 8.3155,12.72 C9.0065,12.72 9.6165,12.277 10.0235,11.597 L10.8335,12.698 C10.9015,12.792 11.0075,12.841 11.1155,12.841 C11.1875,12.841 11.2595,12.818 11.3225,12.773 C11.4785,12.658 11.5115,12.439 11.3975,12.283 L10.3555,10.867 C10.4355,10.61 10.4795,10.329 10.5035,10.04 L10.6055,10.04 L11.9195,11.339 C11.9875,11.407 12.0765,11.441 12.1655,11.441 C12.2555,11.441 12.3455,11.406 12.4145,11.336 C12.5505,11.199 12.5495,10.978 12.4115,10.842" id="Fill-6" fill="#FEFEFE" sketch:type="MSShapeGroup"></path>
        </g>
    </g>
</svg>