<?xml version="1.0" encoding="UTF-8" standalone="no"?>
<svg width="15px" height="14px" viewBox="0 0 15 14" version="1.1" xmlns="http://www.w3.org/2000/svg" xmlns:xlink="http://www.w3.org/1999/xlink" xmlns:sketch="http://www.bohemiancoding.com/sketch/ns">
    <!-- Generator: Sketch 3.4 (15575) - http://www.bohemiancoding.com/sketch -->
    <title>ico-photo-cam</title>
    <desc>Created with Sketch.</desc>
    <defs>
        <path id="path-1" d="M0,0.875 L15,0.875 L15,14 L0,14 L0,0.875 Z"></path>
    </defs>
    <g id="Page-1" stroke="none" stroke-width="1" fill="none" fill-rule="evenodd" sketch:type="MSPage">
        <g id="ico-photo-cam" sketch:type="MSLayerGroup">
            <g id="Group-3">
                <mask id="mask-2" sketch:name="Clip 2" fill="white">
                    <use xlink:href="#path-1"></use>
                </mask>
                <g id="Clip-2"></g>
                <path d="M14.0625,12.5937 C14.0625,12.8527 13.8525,13.0627 13.5935,13.0627 L1.4065,13.0627 C1.1475,13.0627 0.9375,12.8527 0.9375,12.5937 L0.9375,4.1557 C0.9375,3.8967 1.1475,3.6877 1.4065,3.6877 L3.5155,3.6877 C3.9185,3.6877 4.1325,3.4987 4.2245,3.4077 L5.8195,1.8127 L9.1805,1.8127 L10.7945,3.4257 C10.8855,3.5167 11.1475,3.6877 11.4845,3.6877 L13.5935,3.6877 C13.8525,3.6877 14.0625,3.8967 14.0625,4.1557 L14.0625,12.5937 Z M14.0625,2.7497 L11.9125,2.7497 C11.5065,2.7497 11.1085,2.4147 11.1085,2.4147 L9.9445,1.2507 C9.5705,0.8767 9.2655,0.8747 9.1405,0.8747 L5.8595,0.8747 C5.7345,0.8747 5.4255,0.8807 5.1545,1.1517 C4.8835,1.4227 3.8905,2.4147 3.8905,2.4147 C3.8905,2.4147 3.5375,2.7497 3.0875,2.7497 L0.9375,2.7497 C0.4195,2.7497 -0.0005,3.1697 -0.0005,3.6877 L-0.0005,13.0627 C-0.0005,13.5807 0.4195,13.9997 0.9375,13.9997 L14.0625,13.9997 C14.5805,13.9997 14.9995,13.5807 14.9995,13.0627 L14.9995,3.6877 C14.9995,3.1697 14.5805,2.7497 14.0625,2.7497 L14.0625,2.7497 Z" id="Fill-1" fill="#FEFEFE" sketch:type="MSShapeGroup" mask="url(#mask-2)"></path>
            </g>
            <path d="M7.5,11.1875 C5.947,11.1875 4.687,9.9285 4.687,8.3745 C4.687,6.8215 5.947,5.5625 7.5,5.5625 C9.053,5.5625 10.313,6.8215 10.313,8.3745 C10.313,9.9285 9.053,11.1875 7.5,11.1875 M7.5,4.6255 C5.429,4.6255 3.75,6.3045 3.75,8.3745 C3.75,10.4455 5.429,12.1245 7.5,12.1245 C9.571,12.1245 11.25,10.4455 11.25,8.3745 C11.25,6.3045 9.571,4.6255 7.5,4.6255" id="Fill-4" fill="#FEFEFE" sketch:type="MSShapeGroup"></path>
            <path d="M12.6562,4.625 C12.3972,4.625 12.1872,4.835 12.1872,5.094 C12.1872,5.353 12.3972,5.562 12.6562,5.562 C12.9152,5.562 13.1252,5.353 13.1252,5.094 C13.1252,4.835 12.9152,4.625 12.6562,4.625" id="Fill-6" fill="#FEFEFE" sketch:type="MSShapeGroup"></path>
            <path d="M7.5,6.5 C7.241,6.5 7.031,6.71 7.031,6.969 C7.031,7.228 7.241,7.437 7.5,7.437 C8.018,7.437 8.437,7.857 8.437,8.375 C8.437,8.634 8.647,8.844 8.906,8.844 C9.165,8.844 9.375,8.634 9.375,8.375 C9.375,7.34 8.535,6.5 7.5,6.5" id="Fill-8" fill="#FEFEFE" sketch:type="MSShapeGroup"></path>
        </g>
    </g>
</svg>