<?xml version="1.0" encoding="UTF-8" standalone="no"?>
<svg width="18px" height="18px" viewBox="0 0 18 18" version="1.1" xmlns="http://www.w3.org/2000/svg" xmlns:xlink="http://www.w3.org/1999/xlink" xmlns:sketch="http://www.bohemiancoding.com/sketch/ns">
    <!-- Generator: Sketch 3.4 (15575) - http://www.bohemiancoding.com/sketch -->
    <title>ico-dsh-favoritos</title>
    <desc>Created with Sketch.</desc>
    <defs>
        <path id="path-1" d="M0,0.01 L17.991,0.01 L17.991,18 L0,18"></path>
    </defs>
    <g id="Page-1" stroke="none" stroke-width="1" fill="none" fill-rule="evenodd" sketch:type="MSPage">
        <g id="ico-dsh-favoritos" sketch:type="MSLayerGroup">
            <mask id="mask-2" sketch:name="Clip 2" fill="white">
                <use xlink:href="#path-1"></use>
            </mask>
            <g id="Clip-2"></g>
            <path d="M8.9957,13.9929 C9.0897,13.9929 9.1827,14.0169 9.2677,14.0629 L13.4667,16.3849 L12.6567,11.4279 C12.6287,11.2509 12.6847,11.0719 12.8097,10.9439 L16.2627,7.4039 L11.5157,6.6789 C11.3307,6.6509 11.1717,6.5319 11.0927,6.3619 L8.9957,1.8949 L6.8987,6.3619 C6.8197,6.5319 6.6607,6.6509 6.4757,6.6789 L1.7287,7.4039 L5.1817,10.9439 C5.3057,11.0719 5.3627,11.2509 5.3347,11.4279 L4.5247,16.3849 L8.7237,14.0629 C8.8087,14.0169 8.9017,13.9929 8.9957,13.9929 M14.2077,17.9999 C14.1147,17.9999 14.0207,17.9769 13.9357,17.9299 L8.9957,15.1979 L4.0557,17.9299 C3.8677,18.0339 3.6357,18.0209 3.4597,17.8969 C3.2837,17.7729 3.1937,17.5589 3.2287,17.3479 L4.1787,11.5259 L0.1597,7.4059 C0.0127,7.2549 -0.0383,7.0349 0.0287,6.8349 C0.0957,6.6349 0.2687,6.4889 0.4777,6.4569 L6.0087,5.6119 L8.4867,0.3329 C8.5797,0.1349 8.7777,0.0099 8.9957,0.0099 C9.2137,0.0099 9.4117,0.1349 9.5047,0.3329 L11.9827,5.6119 L17.5137,6.4569 C17.7227,6.4889 17.8947,6.6349 17.9627,6.8349 C18.0287,7.0349 17.9787,7.2549 17.8317,7.4059 L13.8127,11.5259 L14.7627,17.3479 C14.7977,17.5589 14.7077,17.7729 14.5317,17.8969 C14.4357,17.9649 14.3217,17.9999 14.2077,17.9999" id="Fill-1" fill="#FEFEFE" sketch:type="MSShapeGroup" mask="url(#mask-2)"></path>
        </g>
    </g>
</svg>