<?xml version="1.0" encoding="UTF-8" standalone="no"?>
<svg width="18px" height="18px" viewBox="0 0 18 18" version="1.1" xmlns="http://www.w3.org/2000/svg" xmlns:xlink="http://www.w3.org/1999/xlink" xmlns:sketch="http://www.bohemiancoding.com/sketch/ns">
    <!-- Generator: Sketch 3.4 (15575) - http://www.bohemiancoding.com/sketch -->
    <title>ico-dsh-dashboard</title>
    <desc>Created with Sketch.</desc>
    <defs>
        <path id="path-1" d="M0,0 L17.993,0 L17.993,18 L0,18 L0,0 Z"></path>
    </defs>
    <g id="Page-1" stroke="none" stroke-width="1" fill="none" fill-rule="evenodd" sketch:type="MSPage">
        <g id="ico-dsh-dashboard" sketch:type="MSLayerGroup">
            <mask id="mask-2" sketch:name="Clip 2" fill="white">
                <use xlink:href="#path-1"></use>
            </mask>
            <g id="Clip-2"></g>
            <path d="M15.1821,16.3131 C15.1821,16.6241 14.9301,16.8751 14.6201,16.8751 L11.2461,16.8751 L11.2461,11.8151 C11.2461,11.5041 10.9941,11.2521 10.6841,11.2521 L7.3101,11.2521 C6.9991,11.2521 6.7481,11.5041 6.7481,11.8151 L6.7481,16.8751 L3.3741,16.8751 C3.0631,16.8751 2.8121,16.6241 2.8121,16.3131 L2.8121,7.8791 L9.0021,1.3581 L15.1821,7.5381 L15.1821,16.3131 Z M10.1211,16.8751 L7.8721,16.8751 L7.8721,12.3771 L10.1211,12.3771 L10.1211,16.8751 Z M5.0611,2.2561 L5.0611,3.9431 L3.9361,5.0671 L3.9361,2.2561 L5.0611,2.2561 Z M17.8341,8.5991 L12.1991,2.9641 L9.3991,0.1651 C9.2891,0.0551 9.1461,0.0001 9.0021,0.0001 C8.8581,0.0001 8.7141,0.0551 8.6041,0.1651 L6.1851,2.8181 L6.1851,1.6931 C6.1851,1.3831 5.9341,1.1311 5.6231,1.1311 L3.3741,1.1311 C3.0631,1.1311 2.8121,1.3831 2.8121,1.6931 L2.8121,6.1921 L0.1591,9.0031 C-0.0599,9.2231 -0.0489,9.5681 0.1701,9.7871 C0.3901,10.0081 0.7121,10.0401 0.9321,9.8201 L1.6871,9.0031 L1.6871,16.8751 C1.6871,17.4961 2.1901,18.0001 2.8121,18.0001 L15.1821,18.0001 C15.8031,18.0001 16.3071,17.4961 16.3071,16.8751 L16.3071,8.6621 L17.0471,9.4031 C17.2671,9.6231 17.6031,9.6031 17.8231,9.3831 C18.0421,9.1641 18.0541,8.8191 17.8341,8.5991 L17.8341,8.5991 Z" id="Fill-1" fill="#FEFEFE" sketch:type="MSShapeGroup" mask="url(#mask-2)"></path>
        </g>
    </g>
</svg>