<?xml version="1.0" encoding="UTF-8" standalone="no"?>
<svg width="50px" height="50px" viewBox="0 0 50 50" version="1.1" xmlns="http://www.w3.org/2000/svg" xmlns:xlink="http://www.w3.org/1999/xlink" xmlns:sketch="http://www.bohemiancoding.com/sketch/ns">
    <!-- Generator: Sketch 3.4 (15575) - http://www.bohemiancoding.com/sketch -->
    <title>ico-view</title>
    <desc>Created with Sketch.</desc>
    <defs></defs>
    <g id="Page-1" stroke="none" stroke-width="1" fill="none" fill-rule="evenodd" sketch:type="MSPage">
        <g id="ico-view" sketch:type="MSLayerGroup">
            <path d="M0,-0.0004 L50,49.9996 L50,-0.0004 L0,-0.0004 Z" id="Fill-1" fill="#69C07D" sketch:type="MSShapeGroup"></path>
            <g id="Group-8" transform="translate(25.000000, 4.000000)" fill="#FEFEFE" sketch:type="MSShapeGroup">
                <path d="M19.9038,17.9178 L16.3338,14.3558 C16.3158,14.3378 16.2948,14.3248 16.2758,14.3118 C15.9548,14.8058 15.5708,15.2738 15.1388,15.7068 C14.7058,16.1398 14.2368,16.5238 13.7378,16.8448 C13.7558,16.8638 13.7688,16.8848 13.7868,16.9028 L17.3498,20.4718 C18.0548,21.1758 19.1998,21.1758 19.9028,20.4718 C20.6068,19.7678 20.6068,18.6228 19.9038,17.9178" id="Fill-2"></path>
                <path d="M3.6049,14.4593 C0.7689,11.6233 0.7699,7.0063 3.6059,4.1733 C6.4419,1.3383 11.0559,1.3383 13.8909,4.1723 C16.7249,7.0063 16.7239,11.6183 13.8909,14.4583 C11.0549,17.2853 6.4419,17.2953 3.6049,14.4593 M14.6299,3.4313 C11.3859,0.1883 6.1099,0.1883 2.8669,3.4323 C-0.3801,6.6743 -0.3811,11.9543 2.8639,15.1983 C6.1089,18.4403 11.3859,18.4403 14.6299,15.1973 C17.8729,11.9543 17.8729,6.6743 14.6299,3.4313" id="Fill-4"></path>
                <path d="M11.3945,13.8832 C11.3475,13.8832 11.2995,13.8712 11.2565,13.8472 L8.7475,12.4602 L6.2385,13.8472 C6.1425,13.9012 6.0245,13.8942 5.9355,13.8312 C5.8455,13.7682 5.8005,13.6592 5.8175,13.5522 L6.3005,10.5952 L4.2595,8.5022 C4.1845,8.4252 4.1585,8.3142 4.1925,8.2122 C4.2265,8.1102 4.3145,8.0372 4.4205,8.0202 L7.2295,7.5912 L8.4885,4.9102 C8.5355,4.8092 8.6365,4.7452 8.7475,4.7452 C8.8575,4.7452 8.9585,4.8092 9.0055,4.9102 L10.2645,7.5912 L13.0735,8.0202 C13.1795,8.0372 13.2675,8.1102 13.3015,8.2122 C13.3355,8.3142 13.3095,8.4252 13.2345,8.5022 L11.1935,10.5952 L11.6765,13.5522 C11.6945,13.6592 11.6485,13.7682 11.5595,13.8312 C11.5095,13.8652 11.4525,13.8832 11.3945,13.8832" id="Fill-6"></path>
            </g>
        </g>
    </g>
</svg>