<?xml version="1.0" encoding="UTF-8" standalone="no"?>
<svg width="21px" height="21px" viewBox="0 0 21 21" version="1.1" xmlns="http://www.w3.org/2000/svg" xmlns:xlink="http://www.w3.org/1999/xlink" xmlns:sketch="http://www.bohemiancoding.com/sketch/ns">
    <!-- Generator: Sketch 3.4 (15575) - http://www.bohemiancoding.com/sketch -->
    <title>ico-dsh-menu-open</title>
    <desc>Created with Sketch.</desc>
    <defs></defs>
    <g id="Page-1" stroke="none" stroke-width="1" fill="none" fill-rule="evenodd" sketch:type="MSPage">
        <g id="ico-dsh-menu-open" sketch:type="MSLayerGroup" fill="#FEFEFE">
            <path d="M10.5,20 C15.738,20 20,15.738 20,10.5 C20,5.262 15.738,1 10.5,1 C5.262,1 1,5.262 1,10.5 C1,15.738 5.262,20 10.5,20 M10.5,0 C16.29,0 21,4.71 21,10.5 C21,16.29 16.29,21 10.5,21 C4.71,21 0,16.29 0,10.5 C0,4.71 4.71,0 10.5,0" id="Fill-1" sketch:type="MSShapeGroup"></path>
            <path d="M9.1074,5.9341 L9.1074,14.9341 L13.6074,10.4341 L9.1074,5.9341 Z" id="Fill-3" sketch:type="MSShapeGroup"></path>
        </g>
    </g>
</svg>