<?xml version="1.0" encoding="UTF-8" standalone="no"?>
<svg width="20px" height="17px" viewBox="0 0 20 17" version="1.1" xmlns="http://www.w3.org/2000/svg" xmlns:xlink="http://www.w3.org/1999/xlink" xmlns:sketch="http://www.bohemiancoding.com/sketch/ns">
    <!-- Generator: Sketch 3.4 (15575) - http://www.bohemiancoding.com/sketch -->
    <title>ico-dsh-observaciones</title>
    <desc>Created with Sketch.</desc>
    <defs>
        <path id="path-1" d="M0,0.128 L20,0.128 L20,17 L0,17 L0,0.128 Z"></path>
        <path id="path-3" d="M0,0.128 L20,0.128 L20,17 L0,17"></path>
    </defs>
    <g id="Page-1" stroke="none" stroke-width="1" fill="none" fill-rule="evenodd" sketch:type="MSPage">
        <g id="ico-dsh-observaciones" sketch:type="MSLayerGroup">
            <g id="Group-3">
                <mask id="mask-2" sketch:name="Clip 2" fill="white">
                    <use xlink:href="#path-1"></use>
                </mask>
                <g id="Clip-2"></g>
                <path d="M4.5318,3.6097 C6.3588,3.6097 7.8458,5.0977 7.8458,6.9217 C7.8458,8.7487 6.3588,10.2357 4.5318,10.2357 C2.7058,10.2357 1.2178,8.7487 1.2178,6.9217 C1.2178,5.0957 2.7058,3.6097 4.5318,3.6097 L4.5318,3.6097 Z M12.3548,3.6097 C11.6088,4.3057 11.1088,5.2467 10.9658,6.3067 L9.0198,6.3067 C8.8738,5.2467 8.3738,4.3057 7.6288,3.6097 L12.3548,3.6097 Z M14.7218,3.6957 L14.8638,3.6687 C15.0538,3.6337 15.2468,3.6087 15.4478,3.6087 C17.2698,3.6087 18.7568,5.0957 18.7568,6.9207 C18.7568,8.7477 17.2698,10.2337 15.4478,10.2337 C13.6208,10.2337 12.1338,8.7477 12.1338,6.9207 C12.1328,5.3457 13.2448,4.0287 14.7218,3.6957 L14.7218,3.6957 Z M4.5318,11.4687 C4.8338,11.4687 5.1258,11.4357 5.4108,11.3787 C5.5068,11.3597 5.5948,11.3237 5.6878,11.3007 C5.8738,11.2497 6.0578,11.2017 6.2338,11.1307 C6.3388,11.0897 6.4328,11.0337 6.5348,10.9837 C6.6878,10.9067 6.8378,10.8297 6.9828,10.7387 C7.0798,10.6737 7.1718,10.6017 7.2658,10.5287 C7.3958,10.4317 7.5208,10.3317 7.6418,10.2207 C7.7288,10.1387 7.8088,10.0487 7.8898,9.9587 C7.9958,9.8417 8.1008,9.7207 8.1948,9.5897 C8.2658,9.4927 8.3318,9.3907 8.3968,9.2847 C8.4798,9.1487 8.5538,9.0097 8.6238,8.8657 C8.6788,8.7537 8.7278,8.6397 8.7728,8.5237 C8.8288,8.3747 8.8748,8.2197 8.9158,8.0617 C8.9468,7.9397 8.9798,7.8167 9.0028,7.6917 C9.0108,7.6387 9.0328,7.5897 9.0388,7.5357 L10.9448,7.5357 C10.9538,7.5897 10.9718,7.6387 10.9818,7.6917 C11.0038,7.8187 11.0338,7.9407 11.0678,8.0617 C11.1078,8.2197 11.1558,8.3727 11.2138,8.5237 C11.2548,8.6417 11.3068,8.7537 11.3628,8.8657 C11.4318,9.0097 11.5068,9.1487 11.5878,9.2847 C11.6548,9.3887 11.7198,9.4907 11.7948,9.5897 C11.8878,9.7207 11.9908,9.8407 12.0968,9.9587 C12.1778,10.0487 12.2558,10.1387 12.3478,10.2207 C12.4658,10.3317 12.5928,10.4317 12.7218,10.5287 C12.8138,10.5997 12.9068,10.6737 13.0028,10.7387 C13.1488,10.8297 13.2958,10.9067 13.4538,10.9837 C13.5508,11.0317 13.6468,11.0877 13.7518,11.1307 C13.9258,11.2017 14.1098,11.2517 14.2958,11.3007 C14.3888,11.3257 14.4768,11.3597 14.5728,11.3787 C14.8558,11.4357 15.1538,11.4687 15.4548,11.4687 C17.9608,11.4687 19.9998,9.4277 19.9998,6.9217 C19.9998,4.5127 18.1448,2.5327 15.7398,2.4067 C15.6438,2.3987 15.5498,2.3767 15.4548,2.3767 C15.4398,2.3767 15.4258,2.3797 15.4148,2.3797 C15.4018,2.3817 15.3898,2.3787 15.3778,2.3787 L4.9568,2.3767 L4.7648,2.3897 C4.6908,2.3827 4.6188,2.3767 4.5448,2.3767 C2.0378,2.3767 -0.0002,4.4147 -0.0002,6.9217 C-0.0132,9.4277 2.0248,11.4687 4.5318,11.4687 L4.5318,11.4687 Z" id="Fill-1" fill="#FEFEFE" sketch:type="MSShapeGroup" mask="url(#mask-2)"></path>
            </g>
            <path d="M14.3106,12.4019 C14.0226,12.3219 13.8156,12.2649 13.6146,12.1849 C13.5256,12.1499 13.4436,12.1059 13.3596,12.0609 C13.0996,11.9329 12.9276,11.8459 12.7666,11.7429 C12.6756,11.6809 12.5936,11.6189 12.5066,11.5559 C12.2966,11.3949 12.1556,11.2829 12.0206,11.1569 C11.9176,11.0569 11.8276,10.9579 11.7356,10.8579 C11.6146,10.7249 11.4996,10.5869 11.3956,10.4379 C11.3096,10.3269 11.2416,10.2139 11.1666,10.0959 C11.0726,9.9389 10.9836,9.7809 10.9056,9.6159 C10.8466,9.4889 10.7876,9.3629 10.7376,9.2299 C10.6706,9.0539 10.6206,8.8819 10.5736,8.7049 C10.5696,8.6809 10.5636,8.6589 10.5556,8.6389 L9.6296,8.6389 C9.6236,8.6609 9.6176,8.6839 9.6106,8.7059 C9.5646,8.8819 9.5146,9.0539 9.4486,9.2269 C9.3986,9.3629 9.3406,9.4889 9.2836,9.6159 C9.2026,9.7829 9.1166,9.9389 9.0236,10.0929 C8.9496,10.2109 8.8746,10.3269 8.7906,10.4379 C8.6846,10.5869 8.5686,10.7239 8.4476,10.8579 C8.3556,10.9579 8.2656,11.0569 8.1686,11.1499 C8.0286,11.2829 7.8866,11.3949 7.7406,11.5069 C7.5906,11.6199 7.5066,11.6819 7.4196,11.7399 C7.2556,11.8449 7.0826,11.9319 6.9106,12.0199 C6.7366,12.1099 6.6526,12.1509 6.5656,12.1849 C6.3696,12.2649 6.1596,12.3219 5.9486,12.3799 C5.7896,12.4269 5.7126,12.4509 5.6336,12.4669 C4.6736,12.6599 3.7446,12.5699 2.9096,12.2719 C4.1096,15.0539 6.8726,16.9999 10.0946,16.9999 C13.3226,16.9999 16.0966,15.0419 17.2876,12.2459 C16.7436,12.4419 16.1616,12.5669 15.5476,12.5669 C15.2206,12.5669 14.8856,12.5349 14.5466,12.4669 C14.4666,12.4489 14.3876,12.4259 14.3106,12.4019" id="Fill-4" fill="#FEFEFE" sketch:type="MSShapeGroup"></path>
            <g id="Group-8">
                <mask id="mask-4" sketch:name="Clip 7" fill="white">
                    <use xlink:href="#path-3"></use>
                </mask>
                <g id="Clip-7"></g>
                <path d="M10.0929,0.1279 C8.7909,0.1279 7.5699,0.4489 6.4899,1.0109 L13.6939,1.0109 C12.6159,0.4509 11.3939,0.1279 10.0929,0.1279" id="Fill-6" fill="#FEFEFE" sketch:type="MSShapeGroup" mask="url(#mask-4)"></path>
            </g>
        </g>
    </g>
</svg>