<?xml version="1.0" encoding="UTF-8" standalone="no"?>
<svg width="20px" height="20px" viewBox="0 0 20 20" version="1.1" xmlns="http://www.w3.org/2000/svg" xmlns:xlink="http://www.w3.org/1999/xlink" xmlns:sketch="http://www.bohemiancoding.com/sketch/ns">
    <!-- Generator: Sketch 3.4 (15575) - http://www.bohemiancoding.com/sketch -->
    <title>ico-dsh-diario</title>
    <desc>Created with Sketch.</desc>
    <defs></defs>
    <g id="Page-1" stroke="none" stroke-width="1" fill="none" fill-rule="evenodd" sketch:type="MSPage">
        <g id="ico-dsh-diario" sketch:type="MSLayerGroup" fill="#FEFEFE">
            <path d="M18.125,19.375 L3.27,19.375 C3.568,19.043 3.75,18.606 3.75,18.125 L3.75,1.25 C3.75,0.905 4.03,0.625 4.375,0.625 L18.75,0.625 C19.095,0.625 19.375,0.905 19.375,1.25 L19.375,18.125 C19.375,18.815 18.815,19.375 18.125,19.375 M0.625,18.125 L0.625,10.937 C0.625,10.592 0.905,10.312 1.25,10.312 L3.125,10.312 L3.125,18.125 C3.125,18.815 2.565,19.375 1.875,19.375 C1.185,19.375 0.625,18.815 0.625,18.125 M18.75,0 L4.375,0 C3.684,0 3.125,0.559 3.125,1.25 L3.125,9.687 L1.25,9.687 C0.559,9.687 0,10.247 0,10.937 L0,18.125 C0,19.16 0.84,20 1.875,20 L18.125,20 C19.16,20 20,19.16 20,18.125 L20,1.25 C20,0.559 19.441,0 18.75,0" id="Fill-1" sketch:type="MSShapeGroup"></path>
            <path d="M16.5625,7.8125 L6.5625,7.8125 C6.3895,7.8125 6.2495,7.9525 6.2495,8.1245 C6.2495,8.2975 6.3895,8.4375 6.5625,8.4375 L16.5625,8.4375 C16.7355,8.4375 16.8745,8.2975 16.8745,8.1245 C16.8745,7.9525 16.7355,7.8125 16.5625,7.8125" id="Fill-3" sketch:type="MSShapeGroup"></path>
            <path d="M16.5625,5.9375 L6.5625,5.9375 C6.3895,5.9375 6.2495,6.0775 6.2495,6.2495 C6.2495,6.4225 6.3895,6.5625 6.5625,6.5625 L16.5625,6.5625 C16.7355,6.5625 16.8745,6.4225 16.8745,6.2495 C16.8745,6.0775 16.7355,5.9375 16.5625,5.9375" id="Fill-5" sketch:type="MSShapeGroup"></path>
            <path d="M16.5625,11.5625 L6.5625,11.5625 C6.3895,11.5625 6.2495,11.7025 6.2495,11.8745 C6.2495,12.0475 6.3895,12.1875 6.5625,12.1875 L16.5625,12.1875 C16.7355,12.1875 16.8745,12.0475 16.8745,11.8745 C16.8745,11.7025 16.7355,11.5625 16.5625,11.5625" id="Fill-7" sketch:type="MSShapeGroup"></path>
            <path d="M16.5625,13.4375 L6.5625,13.4375 C6.3895,13.4375 6.2495,13.5775 6.2495,13.7495 C6.2495,13.9225 6.3895,14.0625 6.5625,14.0625 L16.5625,14.0625 C16.7355,14.0625 16.8745,13.9225 16.8745,13.7495 C16.8745,13.5775 16.7355,13.4375 16.5625,13.4375" id="Fill-9" sketch:type="MSShapeGroup"></path>
            <path d="M16.5625,15.3125 L6.5625,15.3125 C6.3895,15.3125 6.2495,15.4525 6.2495,15.6245 C6.2495,15.7975 6.3895,15.9375 6.5625,15.9375 L16.5625,15.9375 C16.7355,15.9375 16.8745,15.7975 16.8745,15.6245 C16.8745,15.4525 16.7355,15.3125 16.5625,15.3125" id="Fill-11" sketch:type="MSShapeGroup"></path>
            <path d="M16.5625,9.6875 L6.5625,9.6875 C6.3895,9.6875 6.2495,9.8275 6.2495,9.9995 C6.2495,10.1725 6.3895,10.3125 6.5625,10.3125 L16.5625,10.3125 C16.7355,10.3125 16.8745,10.1725 16.8745,9.9995 C16.8745,9.8275 16.7355,9.6875 16.5625,9.6875" id="Fill-13" sketch:type="MSShapeGroup"></path>
            <path d="M6.5625,4.6875 L11.2495,4.6875 C11.4225,4.6875 11.5625,4.5475 11.5625,4.3755 C11.5625,4.2025 11.4225,4.0625 11.2495,4.0625 L6.5625,4.0625 C6.3895,4.0625 6.2505,4.2025 6.2505,4.3755 C6.2505,4.5475 6.3895,4.6875 6.5625,4.6875" id="Fill-15" sketch:type="MSShapeGroup"></path>
        </g>
    </g>
</svg>