<?xml version="1.0" encoding="UTF-8" standalone="no"?>
<svg width="203px" height="203px" viewBox="0 0 203 203" version="1.1" xmlns="http://www.w3.org/2000/svg" xmlns:xlink="http://www.w3.org/1999/xlink" xmlns:sketch="http://www.bohemiancoding.com/sketch/ns">
    <!-- Generator: Sketch 3.4 (15575) - http://www.bohemiancoding.com/sketch -->
    <title>ico-comparte</title>
    <desc>Created with Sketch.</desc>
    <defs></defs>
    <g id="Page-1" stroke="none" stroke-width="1" fill="none" fill-rule="evenodd" sketch:type="MSPage">
        <g id="ico-comparte" sketch:type="MSLayerGroup" transform="translate(1.000000, 1.000000)" stroke="#FEFEFE" stroke-width="3">
            <path d="M200.5004,100.5 C200.5004,155.728 155.7284,200.5 100.5004,200.5 C45.2714,200.5 0.5004,155.728 0.5004,100.5 C0.5004,45.272 45.2714,0.5 100.5004,0.5 C155.7284,0.5 200.5004,45.272 200.5004,100.5 L200.5004,100.5 Z" id="Stroke-1" sketch:type="MSShapeGroup"></path>
            <path d="M144.4086,132.3984 C140.5416,132.3984 137.1276,133.9524 134.3806,136.2334 L110.1446,118.9374 C111.6826,115.7694 112.6126,112.2914 112.6126,108.5514 C112.6126,103.4124 110.9356,98.6634 108.1736,94.7804 L136.5236,66.4144 C138.8806,67.7974 141.4756,68.8074 144.4086,68.8074 C153.1956,68.8074 160.3066,61.6974 160.3066,52.9094 C160.3066,44.1224 153.1956,37.0114 144.4086,37.0114 C135.6206,37.0114 128.5106,44.1224 128.5106,52.9094 C128.5106,55.8424 129.5206,58.4384 130.9036,60.7944 L102.5536,89.1604 C98.6386,86.3664 93.9216,84.7054 88.7666,84.7054 C79.6686,84.7054 71.8436,89.8754 67.8206,97.3874 L48.6796,90.9924 C47.9046,87.4234 44.8766,84.7054 41.0726,84.7054 C36.6816,84.7054 33.1246,88.2624 33.1246,92.6544 C33.1246,97.0454 36.6816,100.6024 41.0726,100.6024 C43.0766,100.6024 44.8606,99.7964 46.2596,98.5684 L65.2936,104.9194 C65.1066,106.1154 64.9196,107.3114 64.9196,108.5514 C64.9196,121.7154 75.6026,132.3984 88.7666,132.3984 C95.3166,132.3984 101.2656,129.7434 105.5786,125.4594 L129.6596,142.6444 C128.9756,144.4134 128.5106,146.2934 128.5106,148.2964 C128.5106,157.0674 135.6206,164.1944 144.4086,164.1944 C153.1956,164.1944 160.3066,157.0674 160.3066,148.2964 C160.3066,139.5244 153.1956,132.3984 144.4086,132.3984 L144.4086,132.3984 Z" id="Stroke-3" sketch:type="MSShapeGroup"></path>
        </g>
    </g>
</svg>