<?xml version="1.0" encoding="UTF-8" standalone="no"?>
<svg width="19px" height="21px" viewBox="0 0 19 21" version="1.1" xmlns="http://www.w3.org/2000/svg" xmlns:xlink="http://www.w3.org/1999/xlink" xmlns:sketch="http://www.bohemiancoding.com/sketch/ns">
    <!-- Generator: Sketch 3.4 (15575) - http://www.bohemiancoding.com/sketch -->
    <title>ico-dsh-sesion</title>
    <desc>Created with Sketch.</desc>
    <defs>
        <path id="path-1" d="M0,0 L18.242,0 L18.242,21 L0,21"></path>
    </defs>
    <g id="Page-1" stroke="none" stroke-width="1" fill="none" fill-rule="evenodd" sketch:type="MSPage">
        <g id="ico-dsh-sesion" sketch:type="MSLayerGroup">
            <g id="Group-3">
                <mask id="mask-2" sketch:name="Clip 2" fill="white">
                    <use xlink:href="#path-1"></use>
                </mask>
                <g id="Clip-2"></g>
                <path d="M7.0518,19.3105 L1.6898,19.3105 L1.6898,1.6895 L7.0518,1.6895 C7.5178,1.6895 7.8968,1.3105 7.8968,0.8445 C7.8968,0.3785 7.5178,-0.0005 7.0518,-0.0005 L0.8448,-0.0005 C0.3788,-0.0005 -0.0002,0.3785 -0.0002,0.8445 L-0.0002,20.1555 C-0.0002,20.6215 0.3788,20.9995 0.8448,20.9995 L7.0518,20.9995 C7.5178,20.9995 7.8968,20.6215 7.8968,20.1555 C7.8968,19.6895 7.5178,19.3105 7.0518,19.3105" id="Fill-1" fill="#FEFEFE" sketch:type="MSShapeGroup" mask="url(#mask-2)"></path>
            </g>
            <path d="M18.2314,10.3643 L14.5434,6.4493 C14.2074,6.1143 13.6814,6.1143 13.3464,6.4493 C13.1854,6.6113 13.0964,6.8243 13.0964,7.0493 C13.0964,7.2743 13.1864,7.4863 13.3464,7.6463 L15.3554,9.6553 L4.2934,9.6553 C3.8274,9.6553 3.4484,10.0343 3.4484,10.5003 C3.4484,10.9663 3.8274,11.3443 4.2934,11.3443 L15.3554,11.3443 L13.3474,13.3533 C13.1854,13.5143 13.0964,13.7263 13.0964,13.9513 C13.0964,14.1773 13.1854,14.3893 13.3454,14.5493 C13.5034,14.7083 13.7214,14.8003 13.9414,14.8003 C14.1744,14.8003 14.4034,14.6983 14.5364,14.5503 L17.9844,11.1013 L18.1644,10.8483 L17.7644,10.6553 L17.7694,10.6553 L17.7664,10.6523 L18.1744,10.8203 L18.2274,10.7153 L18.2414,10.5003 C18.2414,10.4713 18.2414,10.4233 18.2314,10.3643" id="Fill-4" fill="#FEFEFE" sketch:type="MSShapeGroup"></path>
        </g>
    </g>
</svg>