<?xml version="1.0" encoding="UTF-8" standalone="no"?>
<svg width="203px" height="203px" viewBox="0 0 203 203" version="1.1" xmlns="http://www.w3.org/2000/svg" xmlns:xlink="http://www.w3.org/1999/xlink" xmlns:sketch="http://www.bohemiancoding.com/sketch/ns">
    <!-- Generator: Sketch 3.4 (15575) - http://www.bohemiancoding.com/sketch -->
    <title>ico-descubre</title>
    <desc>Created with Sketch.</desc>
    <defs></defs>
    <g id="Page-1" stroke="none" stroke-width="1" fill="none" fill-rule="evenodd" sketch:type="MSPage">
        <g id="ico-descubre" sketch:type="MSLayerGroup" transform="translate(1.000000, 1.000000)">
            <path d="M100.4586,118.5347 C102.6826,118.5687 104.4756,116.8227 104.5396,114.5437 C104.5676,113.5187 104.1796,112.5277 103.4456,111.7537 C102.6816,110.9487 101.6566,110.4917 100.5596,110.4657 C99.5146,110.4347 98.5086,110.8337 97.7356,111.5737 C96.9356,112.3387 96.4836,113.3707 96.4606,114.4797 C96.4396,115.5147 96.8336,116.5067 97.5706,117.2727 C98.3346,118.0667 99.3596,118.5147 100.4586,118.5347 L100.4586,118.5347 Z M100.5306,121.5957 C100.4876,121.5957 100.4456,121.5957 100.4026,121.5947 L100.4026,121.5947 C98.4856,121.5597 96.6966,120.7787 95.3646,119.3947 C94.0606,118.0387 93.3626,116.2707 93.4006,114.4177 C93.4396,112.4897 94.2276,110.6937 95.6196,109.3627 C96.9846,108.0557 98.7596,107.3677 100.6326,107.4057 C102.5496,107.4507 104.3366,108.2467 105.6646,109.6467 C106.9636,111.0147 107.6506,112.7847 107.5986,114.6297 C107.4906,118.4977 104.3316,121.5957 100.5306,121.5957 L100.5306,121.5957 Z M67.0886,99.3407 L67.0656,99.3407 C57.7046,99.3537 50.0846,106.9867 50.0796,116.3567 C50.0776,120.9067 51.8496,125.1857 55.0706,128.4047 C58.2836,131.6147 62.5506,133.3827 67.0856,133.3827 L67.1066,133.3827 C71.6566,133.3777 75.9336,131.6007 79.1506,128.3787 C82.3656,125.1587 84.1326,120.8827 84.1246,116.3407 C84.1086,106.9627 76.4686,99.3407 67.0886,99.3407 L67.0886,99.3407 Z M67.0856,136.4437 C61.7326,136.4437 56.6986,134.3577 52.9066,130.5687 C49.1066,126.7717 47.0166,121.7237 47.0186,116.3547 C47.0246,105.3007 56.0156,96.2947 67.0616,96.2797 L67.0886,96.2797 C78.1546,96.2797 87.1666,105.2707 87.1856,116.3357 C87.1946,121.6967 85.1106,126.7417 81.3166,130.5417 C77.5226,134.3407 72.4776,136.4377 67.1106,136.4437 L67.1086,134.9127 L67.1106,136.4437 L67.0856,136.4437 Z M133.8926,99.3407 L133.8496,99.3407 C124.4836,99.3637 116.8696,107.0037 116.8766,116.3727 C116.8796,120.9217 118.6576,125.1987 121.8836,128.4157 C125.0966,131.6197 129.3576,133.3827 133.8836,133.3827 L133.9226,133.3827 C143.2846,133.3617 150.9096,125.7307 150.9206,116.3727 C150.9256,111.8147 149.1556,107.5337 145.9346,104.3177 C142.7206,101.1067 138.4446,99.3407 133.8926,99.3407 L133.8926,99.3407 Z M133.8836,136.4437 C128.5406,136.4437 123.5136,134.3637 119.7226,130.5837 C115.9166,126.7887 113.8186,121.7427 113.8156,116.3747 C113.8076,105.3217 122.7916,96.3067 133.8416,96.2797 L133.8926,96.2797 C139.2616,96.2797 144.3046,98.3637 148.0976,102.1517 C151.8986,105.9477 153.9876,110.9987 153.9816,116.3767 C153.9686,127.4167 144.9736,136.4187 133.9286,136.4437 L133.8836,136.4437 Z M76.6276,54.8097 C71.3286,54.8097 66.4436,57.1997 63.1886,61.3957 C61.8256,63.1527 60.9636,65.2367 60.1976,67.2207 C57.3596,74.5757 54.4326,82.0357 51.6026,89.2507 C50.6186,91.7577 49.6346,94.2657 48.6526,96.7747 C48.3146,97.6377 47.9816,98.5267 47.6586,99.3857 C46.9116,101.3797 46.1376,103.4427 45.2166,105.4277 C43.0286,110.1457 42.2546,114.7277 42.8506,119.4367 C43.4586,124.2327 45.3326,128.4977 48.4216,132.1137 C52.5836,136.9867 57.9086,139.8517 64.2486,140.6287 C68.9686,141.2067 73.4946,140.4507 77.7006,138.3797 C83.7976,135.3787 88.0276,130.5857 90.2736,124.1347 C90.3206,123.9987 90.3796,123.8667 90.4316,123.7517 L90.4576,123.6967 L91.2226,121.9197 L92.7756,123.0737 C97.9936,126.9497 103.0516,126.9477 108.2366,123.0667 L109.8946,121.8257 L110.6686,123.9797 C110.7246,124.1347 110.7786,124.2827 110.8296,124.4327 C114.0636,133.8977 123.2906,140.6287 133.2676,140.8017 C139.3356,140.9117 144.6086,139.1487 148.9466,135.5767 C156.7986,129.1137 159.7276,120.7207 157.6546,110.6317 C157.3596,109.1997 156.7796,107.8337 156.1656,106.3877 C155.9446,105.8657 155.7236,105.3437 155.5146,104.8177 C152.6606,97.6227 149.7996,90.2937 147.0336,83.2057 L145.3956,79.0077 C144.7156,77.2687 144.0446,75.5257 143.3736,73.7837 C142.3916,71.2357 141.3766,68.5997 140.3526,66.0227 C137.7696,59.5177 133.0836,55.7997 126.4246,54.9717 C119.9606,54.1667 114.5916,56.5307 110.4636,61.9967 L109.2526,63.5907 L108.0476,62.7537 C102.9596,59.2157 98.0216,59.2157 92.9496,62.7557 L91.7296,63.6067 L90.7196,62.2437 C90.6166,62.1057 90.5086,61.9607 90.4026,61.8137 C87.2236,57.4467 82.3006,54.8947 76.8976,54.8117 C76.8076,54.8107 76.7176,54.8097 76.6276,54.8097 L76.6276,54.8097 Z M67.3046,143.8787 C66.1726,143.8787 65.0296,143.8087 63.8766,143.6667 C56.7526,142.7927 50.7696,139.5747 46.0936,134.1017 C42.6106,130.0237 40.4986,125.2197 39.8146,119.8207 C39.1436,114.5247 40.0026,109.3957 42.4406,104.1397 C43.3126,102.2597 44.0656,100.2527 44.7926,98.3117 C45.1186,97.4417 45.4566,96.5427 45.8026,95.6587 C46.7846,93.1497 47.7686,90.6407 48.7526,88.1327 C51.5816,80.9217 54.5066,73.4657 57.3426,66.1187 C58.1906,63.9227 59.1526,61.6047 60.7706,59.5197 C64.6756,54.4857 70.5686,51.6387 76.9436,51.7517 C83.0776,51.8447 88.6856,54.6357 92.4426,59.4367 C97.7926,56.2097 103.2076,56.2137 108.5716,59.4467 C113.2836,53.6297 119.5696,51.0347 126.8026,51.9347 C134.5436,52.8967 140.2136,57.3777 143.1976,64.8927 C144.2266,67.4847 145.2446,70.1277 146.2296,72.6837 C146.8996,74.4217 147.5686,76.1597 148.2466,77.8947 L149.8846,82.0927 C152.6496,89.1767 155.5086,96.5027 158.3596,103.6887 C158.5596,104.1927 158.7716,104.6917 158.9836,105.1917 C159.6296,106.7127 160.2966,108.2847 160.6526,110.0157 C162.9726,121.3037 159.6886,130.6987 150.8926,137.9397 C145.9766,141.9877 140.0276,143.9817 133.2146,143.8617 C122.4136,143.6747 112.3926,136.6667 108.3916,126.6607 C103.1556,129.8787 97.8566,129.8747 92.5966,126.6467 C89.9636,133.1287 85.4136,137.9947 79.0526,141.1257 C75.3326,142.9577 71.3936,143.8787 67.3046,143.8787 L67.3046,143.8787 Z" id="Fill-1" fill="#FEFEFE" sketch:type="MSShapeGroup"></path>
            <path d="M148.6918,116.3365 L143.1938,116.3365 C143.1198,113.7925 142.2488,111.5965 140.4588,109.8035 C138.6798,108.0215 136.4978,107.1575 133.9548,107.0755 L133.9548,101.5965 C141.4738,101.2505 148.9198,108.0085 148.6918,116.3365" id="Fill-3" fill="#FEFEFE" sketch:type="MSShapeGroup"></path>
            <path d="M81.8949,116.3394 L76.4629,116.3394 C75.8549,110.6994 72.7649,107.5974 67.1199,107.0034 L67.1199,101.6064 C74.3819,101.2004 82.0539,107.7204 81.8949,116.3394" id="Fill-5" fill="#FEFEFE" sketch:type="MSShapeGroup"></path>
            <path d="M200.5004,100.5 C200.5004,155.728 155.7284,200.5 100.5004,200.5 C45.2714,200.5 0.5004,155.728 0.5004,100.5 C0.5004,45.272 45.2714,0.5 100.5004,0.5 C155.7284,0.5 200.5004,45.272 200.5004,100.5 L200.5004,100.5 Z" id="Stroke-7" stroke="#FEFEFE" stroke-width="3" sketch:type="MSShapeGroup"></path>
        </g>
    </g>
</svg>