<?xml version="1.0" encoding="UTF-8" standalone="no"?>
<svg width="126px" height="34px" viewBox="0 0 126 34" version="1.1" xmlns="http://www.w3.org/2000/svg" xmlns:xlink="http://www.w3.org/1999/xlink" xmlns:sketch="http://www.bohemiancoding.com/sketch/ns">
    <!-- Generator: Sketch 3.4 (15575) - http://www.bohemiancoding.com/sketch -->
    <title>inat-logo</title>
    <desc>Created with Sketch.</desc>
    <defs>
        <path id="path-1" d="M0,0.631 L125.792,0.631 L125.792,34 L0,34"></path>
        <path id="path-3" d="M0,0.631 L125.792,0.631 L125.792,34 L0,34 L0,0.631 Z"></path>
    </defs>
    <g id="Page-1" stroke="none" stroke-width="1" fill="none" fill-rule="evenodd" sketch:type="MSPage">
        <g id="inat-logo" sketch:type="MSLayerGroup">
            <g id="Group-3">
                <mask id="mask-2" sketch:name="Clip 2" fill="white">
                    <use xlink:href="#path-1"></use>
                </mask>
                <g id="Clip-2"></g>
                <path d="M15.6167,16.6134 C15.6027,15.8474 16.2117,15.2154 16.9777,15.2014 C17.7437,15.1874 18.3757,15.7974 18.3897,16.5624 C18.4037,17.3284 17.7937,17.9604 17.0287,17.9744 C16.2627,17.9884 15.6307,17.3794 15.6167,16.6134 M30.3577,33.2464 C23.0457,26.7074 24.1257,17.7644 19.2517,12.1724 C15.9927,8.4334 12.1347,7.6864 8.1827,8.2304 C7.4977,8.3254 6.7277,8.5354 6.1207,8.7284 C5.6787,7.7764 3.9577,3.9714 3.3937,1.2084 C3.1757,0.1414 0.9497,0.7164 1.0997,1.6114 C1.6027,4.6254 3.7757,9.4284 5.4687,11.9604 C5.8307,12.5014 6.2087,13.0294 6.5977,13.5424 C6.7657,13.7624 6.9387,13.9734 7.1107,14.1884 C13.1857,22.3134 21.5147,27.6814 21.5147,27.6814 C21.5147,27.6814 7.5817,24.8244 1.0377,11.6294 C0.1787,14.0664 -1.8893,20.7184 4.2377,26.6164 C12.5437,34.6144 32.0657,34.7734 30.3577,33.2464" id="Fill-1" fill="#F37B50" sketch:type="MSShapeGroup" mask="url(#mask-2)"></path>
            </g>
            <path d="M52.3712,27.4691 L48.0642,27.4691 L48.0642,18.2491 C48.0642,17.1101 47.8742,16.2561 47.4932,15.6861 C47.1122,15.1171 46.5122,14.8321 45.6922,14.8321 C44.5912,14.8321 43.7912,15.2371 43.2922,16.0471 C42.7932,16.8561 42.5442,18.1881 42.5442,20.0421 L42.5442,27.4691 L38.2382,27.4691 L38.2382,11.6841 L41.5272,11.6841 L42.1062,13.7031 L42.3462,13.7031 C42.7702,12.9781 43.3822,12.4111 44.1822,12.0011 C44.9822,11.5921 45.8992,11.3871 46.9352,11.3871 C49.2982,11.3871 50.8982,12.1591 51.7362,13.7031 L52.1172,13.7031 C52.5402,12.9691 53.1642,12.3991 53.9882,11.9941 C54.8112,11.5901 55.7412,11.3871 56.7762,11.3871 C58.5642,11.3871 59.9182,11.8461 60.8352,12.7641 C61.7532,13.6811 62.2122,15.1521 62.2122,17.1761 L62.2122,27.4691 L57.8922,27.4691 L57.8922,18.2491 C57.8922,17.1101 57.7012,16.2561 57.3202,15.6861 C56.9382,15.1171 56.3382,14.8321 55.5192,14.8321 C54.4652,14.8321 53.6772,15.2091 53.1552,15.9621 C52.6322,16.7151 52.3712,17.9101 52.3712,19.5481 L52.3712,27.4691 Z" id="Fill-4" fill="#F37B50" sketch:type="MSShapeGroup"></path>
            <mask id="mask-4" sketch:name="Clip 7" fill="white">
                <use xlink:href="#path-3"></use>
            </mask>
            <g id="Clip-7"></g>
            <path d="M70.938,27.469 L66.632,27.469 L66.632,11.684 L70.938,11.684 L70.938,27.469 Z M66.448,7.603 C66.448,6.201 67.23,5.499 68.792,5.499 C70.355,5.499 71.136,6.201 71.136,7.603 C71.136,8.272 70.941,8.792 70.55,9.163 C70.159,9.536 69.573,9.721 68.792,9.721 C67.23,9.721 66.448,9.015 66.448,7.603 L66.448,7.603 Z" id="Fill-6" fill="#F37B50" sketch:type="MSShapeGroup" mask="url(#mask-4)"></path>
            <path d="M94.108,27.4691 L88.545,27.4691 L79.565,11.8531 L79.438,11.8531 C79.617,14.6111 79.706,16.5781 79.706,17.7551 L79.706,27.4691 L75.796,27.4691 L75.796,6.8261 L81.316,6.8261 L90.282,22.2871 L90.38,22.2871 C90.239,19.6051 90.169,17.7081 90.169,16.5971 L90.169,6.8261 L94.108,6.8261 L94.108,27.4691 Z" id="Fill-8" fill="#F37B50" sketch:type="MSShapeGroup" mask="url(#mask-4)"></path>
            <path d="M107.7194,20.1551 L106.0534,20.2121 C104.8014,20.2491 103.8694,20.4751 103.2574,20.8891 C102.6454,21.3041 102.3404,21.9341 102.3404,22.7811 C102.3404,23.9961 103.0364,24.6031 104.4294,24.6031 C105.4274,24.6031 106.2244,24.3161 106.8234,23.7411 C107.4204,23.1671 107.7194,22.4051 107.7194,21.4541 L107.7194,20.1551 Z M108.9904,27.4691 L108.1564,25.3231 L108.0444,25.3231 C107.3194,26.2361 106.5734,26.8691 105.8064,27.2221 C105.0384,27.5751 104.0384,27.7511 102.8054,27.7511 C101.2904,27.7511 100.0964,27.3191 99.2264,26.4521 C98.3554,25.5871 97.9204,24.3531 97.9204,22.7531 C97.9204,21.0781 98.5064,19.8431 99.6784,19.0471 C100.8504,18.2521 102.6174,17.8111 104.9804,17.7271 L107.7194,17.6421 L107.7194,16.9501 C107.7194,15.3501 106.9004,14.5501 105.2624,14.5501 C104.0014,14.5501 102.5184,14.9311 100.8154,15.6941 L99.3884,12.7851 C101.2054,11.8341 103.2194,11.3591 105.4314,11.3591 C107.5504,11.3591 109.1734,11.8201 110.3024,12.7421 C111.4324,13.6651 111.9974,15.0681 111.9974,16.9501 L111.9974,27.4691 L108.9904,27.4691 Z" id="Fill-9" fill="#F37B50" sketch:type="MSShapeGroup" mask="url(#mask-4)"></path>
            <path d="M123.0807,24.3207 C123.8337,24.3207 124.7377,24.1557 125.7917,23.8267 L125.7917,27.0317 C124.7187,27.5117 123.4007,27.7517 121.8387,27.7517 C120.1157,27.7517 118.8617,27.3167 118.0757,26.4457 C117.2897,25.5747 116.8967,24.2687 116.8967,22.5277 L116.8967,14.9167 L114.8347,14.9167 L114.8347,13.0957 L117.2067,11.6557 L118.4497,8.3227 L121.2027,8.3227 L121.2027,11.6837 L125.6227,11.6837 L125.6227,14.9167 L121.2027,14.9167 L121.2027,22.5277 C121.2027,23.1397 121.3747,23.5917 121.7187,23.8827 C122.0617,24.1747 122.5167,24.3207 123.0807,24.3207" id="Fill-10" fill="#F37B50" sketch:type="MSShapeGroup" mask="url(#mask-4)"></path>
        </g>
    </g>
</svg>