<?xml version="1.0" encoding="UTF-8" standalone="no"?>
<svg width="315px" height="88px" viewBox="0 0 315 88" version="1.1" xmlns="http://www.w3.org/2000/svg" xmlns:xlink="http://www.w3.org/1999/xlink" xmlns:sketch="http://www.bohemiancoding.com/sketch/ns">
    <!-- Generator: Sketch 3.4 (15575) - http://www.bohemiancoding.com/sketch -->
    <title>logo-sib</title>
    <desc>Created with Sketch.</desc>
    <defs>
        <path id="path-1" d="M0,0.45 L314.462,0.45 L314.462,88 L0,88"></path>
        <path id="path-3" d="M0,0.45 L314.462,0.45 L314.462,88 L0,88 L0,0.45 Z"></path>
    </defs>
    <g id="Page-1" stroke="none" stroke-width="1" fill="none" fill-rule="evenodd" sketch:type="MSPage">
        <g id="logo-sib" sketch:type="MSLayerGroup">
            <path d="M57.9235,13.661 C57.9235,16.853 55.3365,19.442 52.1435,19.442 C48.9475,19.442 46.3575,16.853 46.3575,13.661 C46.3575,10.467 48.9475,7.878 52.1435,7.878 C55.3365,7.878 57.9235,10.467 57.9235,13.661 M2.0045,33.401 C7.3095,53.053 18.3645,72.138 33.2845,85.977 C50.6635,81.814 67.5185,72.726 80.7355,60.483 C80.4445,60.239 80.1715,59.975 79.9205,59.69 L79.9205,59.692 C79.9205,59.692 76.7165,56.365 71.7285,56.028 C65.9745,55.639 58.4825,64.208 58.4825,64.208 L58.4825,64.205 C54.0845,69.444 47.4875,72.776 40.1115,72.776 C26.8695,72.776 16.1345,62.041 16.1345,48.798 C16.1345,35.556 26.8695,24.821 40.1115,24.821 C42.9545,24.821 45.6825,25.316 48.2135,26.224 C54.1195,28.344 58.9495,32.719 61.6735,38.308 L61.6745,38.3 C61.6745,38.3 66.8755,49.077 72.4925,50.11 C77.3655,51.007 81.4655,48.517 81.4655,48.517 L81.4655,48.519 C82.0325,48.149 82.6565,47.857 83.3225,47.651 C77.9665,30.791 68.0915,14.873 55.6965,2.468 C35.7515,7.612 16.4755,18.741 2.0045,33.401" id="Fill-1" fill="#FEFEFE" sketch:type="MSShapeGroup"></path>
            <path d="M78.813,27.6564 C79.496,30.1814 80.099,32.7324 80.614,35.3024 C82.111,38.6184 83.44,41.9994 84.591,45.4244 C85.674,42.9514 86.656,40.4474 87.528,37.9194 C84.878,34.3314 81.957,30.9034 78.813,27.6564" id="Fill-3" fill="#FEFEFE" sketch:type="MSShapeGroup"></path>
            <g id="Group-7">
                <mask id="mask-2" sketch:name="Clip 6" fill="white">
                    <use xlink:href="#path-1"></use>
                </mask>
                <g id="Clip-6"></g>
                <path d="M45.1882,3.7549 C42.6192,2.5499 40.0182,1.4449 37.3952,0.4499 C33.7792,3.2919 30.3162,6.3929 27.0322,9.7069 C29.9382,8.8919 32.8792,8.1809 35.8432,7.5809 C38.9122,6.1699 42.0322,4.8929 45.1882,3.7549" id="Fill-5" fill="#FEFEFE" sketch:type="MSShapeGroup" mask="url(#mask-2)"></path>
            </g>
            <path d="M43.3813,84.9946 C45.9553,86.1086 48.5643,87.1136 51.1993,87.9996 C54.9843,85.1286 58.5933,81.9546 61.9933,78.5346 C59.4353,79.3056 56.8463,79.9866 54.2333,80.5726 C50.6863,82.2446 47.0593,83.7226 43.3813,84.9946" id="Fill-8" fill="#FEFEFE" sketch:type="MSShapeGroup"></path>
            <path d="M3.3481,43.7608 C2.1241,46.4048 1.0041,49.0838 0.0001,51.7878 C3.0391,55.5648 6.3651,59.1798 9.9241,62.5928 C9.0141,59.6598 8.2181,56.6848 7.5431,53.6808 C5.9891,50.4298 4.5901,47.1158 3.3481,43.7608" id="Fill-10" fill="#FEFEFE" sketch:type="MSShapeGroup"></path>
            <path d="M19.6401,80.8935 C21.7661,81.1085 23.9081,81.2575 26.0601,81.3365 C20.5051,75.2415 15.6131,68.4275 11.4881,61.1795 C13.5601,68.0555 16.2811,74.6935 19.6401,80.8935" id="Fill-12" fill="#FEFEFE" sketch:type="MSShapeGroup"></path>
            <path d="M80.3558,69.0078 C80.5838,67.0088 80.7518,64.9958 80.8568,62.9728 C75.0958,68.1448 68.7018,72.7328 61.9028,76.6058 C68.3268,74.6458 74.5338,72.1038 80.3558,69.0078" id="Fill-14" fill="#FEFEFE" sketch:type="MSShapeGroup"></path>
            <path d="M6.856,19.5002 C6.687,21.8352 6.593,24.1892 6.571,26.5532 C13.246,20.6952 20.681,15.5382 28.571,11.2492 C21.021,13.2932 13.706,16.0612 6.856,19.5002" id="Fill-16" fill="#FEFEFE" sketch:type="MSShapeGroup"></path>
            <path d="M69.2094,7.4213 C67.0094,7.2373 64.7944,7.1193 62.5694,7.0683 C68.0464,13.3993 72.8984,20.4113 76.9334,27.8513 C74.9944,20.7573 72.3964,13.8793 69.2094,7.4213" id="Fill-18" fill="#FEFEFE" sketch:type="MSShapeGroup"></path>
            <path d="M28.1871,49.9041 C27.5761,43.3171 32.4201,37.4801 39.0051,36.8691 C45.5921,36.2591 51.4271,41.1061 52.0381,47.6921 C52.6491,54.2761 47.8041,60.1091 41.2171,60.7201 C34.6321,61.3301 28.7971,56.4871 28.1871,49.9041" id="Fill-20" fill="#FEFEFE" sketch:type="MSShapeGroup"></path>
            <path d="M81.8164,55.1161 C81.6264,53.0651 83.1354,51.2501 85.1864,51.0601 C87.2354,50.8701 89.0504,52.3761 89.2414,54.4281 C89.4314,56.4801 87.9244,58.2961 85.8744,58.4861 C83.8234,58.6771 82.0064,57.1691 81.8164,55.1161" id="Fill-22" fill="#FEFEFE" sketch:type="MSShapeGroup"></path>
            <path d="M49.2486,13.6609 C49.2486,12.0649 50.5436,10.7679 52.1436,10.7679 C53.7376,10.7679 55.0336,12.0649 55.0336,13.6609 C55.0336,15.2569 53.7376,16.5529 52.1436,16.5529 C50.5436,16.5529 49.2486,15.2569 49.2486,13.6609" id="Fill-24" fill="#FEFEFE" sketch:type="MSShapeGroup"></path>
            <path d="M109.5728,32.9518 C103.4258,30.1398 100.9408,28.5048 100.9408,24.9078 C100.9408,22.0958 103.2298,19.3498 108.3298,19.3498 C112.4498,19.3498 115.5238,20.5918 117.2898,21.5078 L119.3168,13.5948 C116.9628,12.4178 113.3008,11.3058 108.5268,11.3058 C97.6708,11.3058 91.1968,17.6488 91.1968,25.8888 C91.1968,32.4288 95.9048,37.1368 103.4908,40.4068 C109.0498,42.8268 111.4688,44.9848 111.4688,48.5818 C111.4688,52.3088 108.6568,54.8598 103.2948,54.8598 C99.2408,54.8598 95.0548,53.6168 92.4388,52.0478 L92.4258,52.1038 C92.7818,52.9678 92.9808,53.9138 92.9808,54.9068 C92.9808,57.0068 92.0978,58.8978 90.6878,60.2398 C93.0978,61.6478 98.0278,62.9688 102.9028,62.9688 C114.6078,62.9688 121.2138,56.5598 121.2138,47.7968 C121.2138,41.1918 117.6168,36.5488 109.5728,32.9518" id="Fill-26" fill="#FEFEFE" sketch:type="MSShapeGroup"></path>
            <path d="M129.5831,10.7826 C126.5751,10.7826 124.4171,12.9406 124.4171,15.9486 C124.4171,18.8916 126.5091,21.1156 129.5831,21.1156 C132.5911,21.1156 134.8151,19.0876 134.8151,15.9486 C134.8151,12.9406 132.7221,10.7826 129.5831,10.7826" id="Fill-28" fill="#FEFEFE" sketch:type="MSShapeGroup"></path>
            <mask id="mask-4" sketch:name="Clip 31" fill="white">
                <use xlink:href="#path-3"></use>
            </mask>
            <g id="Clip-31"></g>
            <path d="M124.809,62.315 L134.488,62.315 L134.488,25.889 L124.809,25.889 L124.809,62.315 Z" id="Fill-30" fill="#FEFEFE" sketch:type="MSShapeGroup" mask="url(#mask-4)"></path>
            <path d="M153.9094,55.5136 C152.2094,55.5136 151.0324,55.4486 150.0514,55.2526 L150.0514,39.5566 L153.6474,39.5566 C158.6184,39.5566 163.5884,41.6496 163.5884,47.4696 C163.5884,53.1596 159.1414,55.5136 153.9094,55.5136 L153.9094,55.5136 Z M150.0514,19.1536 C150.9014,18.9566 152.2094,18.8266 154.3024,18.8266 C158.6184,18.8266 162.3454,20.4616 162.3454,25.4316 C162.3454,29.5516 159.0764,32.4936 153.5824,32.4936 L150.0514,32.4936 L150.0514,19.1536 Z M163.9154,35.4366 L163.9154,35.1756 C169.2774,33.1476 171.9584,28.8976 171.9584,24.3196 C171.9584,20.1996 170.0624,16.8646 167.0544,14.8366 C163.5884,12.4176 159.2724,11.6326 153.1904,11.6326 C148.2854,11.6326 143.3154,12.0906 140.4384,12.6786 L140.4384,62.1186 C142.7914,62.4456 146.3884,62.7726 151.1634,62.7726 C160.1224,62.7726 165.7464,61.1376 169.1464,58.0646 C172.0894,55.4486 173.7244,51.6556 173.7244,47.7316 C173.7244,41.3226 169.5394,36.8756 163.9154,35.4366 L163.9154,35.4366 Z" id="Fill-32" fill="#FEFEFE" sketch:type="MSShapeGroup" mask="url(#mask-4)"></path>
            <path d="M184.8311,22.3624 C184.8311,23.4484 184.5291,24.3274 183.9261,24.9994 C183.3231,25.6724 182.5571,26.0084 181.6281,26.0084 C180.5731,26.0084 179.7251,25.8544 179.0861,25.5464 L179.0861,24.5884 C179.4001,24.7634 179.7881,24.9014 180.2531,25.0044 C180.7171,25.1064 181.1761,25.1574 181.6281,25.1574 C182.3041,25.1574 182.8581,24.9014 183.2931,24.3894 C183.7271,23.8764 183.9441,23.2254 183.9441,22.4354 C183.9441,21.7044 183.7901,21.1264 183.4831,20.6974 C183.1751,20.2694 182.5871,19.8414 181.7191,19.4134 C181.0371,19.0694 180.5271,18.7364 180.1901,18.4134 C179.8521,18.0914 179.6011,17.7154 179.4391,17.2874 C179.2761,16.8594 179.1941,16.3464 179.1941,15.7494 C179.1941,15.0974 179.3271,14.5184 179.5921,14.0124 C179.8581,13.5054 180.2291,13.1124 180.7051,12.8314 C181.1821,12.5514 181.7031,12.4104 182.2701,12.4104 C182.7831,12.4104 183.2491,12.4684 183.6681,12.5824 C184.0871,12.6974 184.4181,12.8214 184.6591,12.9534 L184.3151,13.8044 C183.6451,13.4604 182.9641,13.2884 182.2701,13.2884 C181.6191,13.2884 181.0901,13.5104 180.6831,13.9534 C180.2761,14.3964 180.0721,14.9834 180.0721,15.7134 C180.0721,16.4544 180.2201,17.0304 180.5151,17.4404 C180.8111,17.8514 181.3901,18.2764 182.2531,18.7164 C183.1451,19.1504 183.7981,19.6594 184.2111,20.2404 C184.6241,20.8234 184.8311,21.5304 184.8311,22.3624" id="Fill-33" fill="#FEFEFE" sketch:type="MSShapeGroup" mask="url(#mask-4)"></path>
            <path d="M187.613,25.827 L186.754,25.827 L186.754,16.011 L187.613,16.011 L187.613,25.827 Z M186.627,13.288 C186.627,13.017 186.683,12.806 186.794,12.655 C186.906,12.504 187.049,12.429 187.224,12.429 C187.387,12.429 187.516,12.504 187.613,12.655 C187.71,12.806 187.758,13.017 187.758,13.288 C187.758,13.548 187.71,13.754 187.613,13.908 C187.516,14.062 187.387,14.139 187.224,14.139 C187.049,14.139 186.906,14.062 186.794,13.908 C186.683,13.754 186.627,13.548 186.627,13.288 L186.627,13.288 Z" id="Fill-34" fill="#FEFEFE" sketch:type="MSShapeGroup" mask="url(#mask-4)"></path>
            <path d="M193.9052,23.3668 C193.9052,24.1928 193.6882,24.8398 193.2532,25.3068 C192.8192,25.7748 192.1922,26.0088 191.3722,26.0088 C190.9252,26.0088 190.5332,25.9508 190.1962,25.8358 C189.8582,25.7218 189.5962,25.5948 189.4092,25.4558 L189.4092,24.4518 C189.6312,24.6758 189.9272,24.8548 190.2952,24.9908 C190.6632,25.1258 191.0402,25.1938 191.4262,25.1938 C191.9322,25.1938 192.3312,25.0278 192.6202,24.6968 C192.9102,24.3648 193.0542,23.9218 193.0542,23.3668 C193.0542,22.9328 192.9512,22.5658 192.7422,22.2678 C192.5342,21.9688 192.1382,21.6298 191.5532,21.2498 C190.8832,20.8268 190.4262,20.4898 190.1822,20.2368 C189.9382,19.9828 189.7482,19.6998 189.6122,19.3858 C189.4772,19.0728 189.4092,18.6988 189.4092,18.2638 C189.4092,17.5588 189.6472,16.9748 190.1232,16.5138 C190.6002,16.0518 191.2062,15.8218 191.9422,15.8218 C192.7322,15.8218 193.3922,16.0088 193.9232,16.3828 L193.4802,17.1338 C192.9852,16.8018 192.4602,16.6358 191.9062,16.6358 C191.3992,16.6358 190.9952,16.7848 190.6932,17.0838 C190.3922,17.3828 190.2412,17.7758 190.2412,18.2638 C190.2412,18.6988 190.3432,19.0618 190.5482,19.3548 C190.7532,19.6468 191.1882,20.0018 191.8512,20.4168 C192.5032,20.8458 192.9492,21.1878 193.1902,21.4438 C193.4312,21.7008 193.6112,21.9838 193.7292,22.2948 C193.8462,22.6048 193.9052,22.9628 193.9052,23.3668" id="Fill-35" fill="#FEFEFE" sketch:type="MSShapeGroup" mask="url(#mask-4)"></path>
            <path d="M197.5018,25.2119 C197.7668,25.2119 198.0028,25.1759 198.2068,25.1039 L198.2068,25.8269 C197.9418,25.9479 197.6018,26.0079 197.1848,26.0079 C196.1718,26.0079 195.6648,25.2509 195.6648,23.7369 L195.6648,16.7719 L194.7788,16.7719 L194.7788,16.2649 L195.6468,16.0119 L195.9268,13.6769 L196.5248,13.6769 L196.5248,16.0119 L198.0808,16.0119 L198.0808,16.7719 L196.5248,16.7719 L196.5248,23.4929 C196.5248,24.1569 196.5968,24.6089 196.7418,24.8499 C196.8868,25.0909 197.1398,25.2119 197.5018,25.2119" id="Fill-36" fill="#FEFEFE" sketch:type="MSShapeGroup" mask="url(#mask-4)"></path>
            <path d="M201.9754,16.5995 C200.7934,16.5995 200.1454,17.7785 200.0304,20.1365 L203.8024,20.1365 C203.8024,19.0575 203.6384,18.1975 203.3104,17.5585 C202.9804,16.9195 202.5364,16.5995 201.9754,16.5995 M202.3644,26.0085 C201.3264,26.0085 200.5294,25.5665 199.9714,24.6825 C199.4134,23.7995 199.1344,22.5675 199.1344,20.9875 C199.1344,19.3105 199.3834,18.0305 199.8814,17.1465 C200.3784,16.2635 201.0944,15.8215 202.0294,15.8215 C202.8444,15.8215 203.4864,16.2085 203.9564,16.9835 C204.4274,17.7595 204.6624,18.8045 204.6624,20.1185 L204.6624,20.9145 L200.0124,20.9145 C200.0244,22.3445 200.2264,23.4145 200.6184,24.1265 C201.0104,24.8385 201.6044,25.1945 202.4004,25.1945 C203.0154,25.1945 203.6644,24.9915 204.3454,24.5885 L204.3454,25.4205 C203.7184,25.8125 203.0574,26.0085 202.3644,26.0085" id="Fill-37" fill="#FEFEFE" sketch:type="MSShapeGroup" mask="url(#mask-4)"></path>
            <path d="M214.9988,25.8273 L214.9988,19.1413 C214.9988,17.4953 214.5158,16.6723 213.5508,16.6723 C212.8878,16.6723 212.4098,16.9603 212.1168,17.5363 C211.8248,18.1123 211.6788,18.9603 211.6788,20.0823 L211.6788,25.8273 L210.8278,25.8273 L210.8278,19.1413 C210.8278,18.3093 210.7108,17.6893 210.4748,17.2823 C210.2398,16.8753 209.8748,16.6723 209.3808,16.6723 C208.7288,16.6723 208.2558,16.9673 207.9608,17.5583 C207.6648,18.1503 207.5168,19.1083 207.5168,20.4353 L207.5168,25.8273 L206.6578,25.8273 L206.6578,16.0113 L207.3818,16.0113 L207.4538,17.3773 L207.5348,17.3773 C207.9268,16.3403 208.5928,15.8213 209.5348,15.8213 C210.0768,15.8213 210.5048,15.9663 210.8188,16.2553 C211.1328,16.5453 211.3588,16.9673 211.4978,17.5223 C211.7328,16.9193 212.0228,16.4853 212.3658,16.2193 C212.7098,15.9543 213.1558,15.8213 213.7048,15.8213 C214.4468,15.8213 214.9898,16.1063 215.3328,16.6763 C215.6778,17.2463 215.8488,18.1583 215.8488,19.4133 L215.8488,25.8273 L214.9988,25.8273 Z" id="Fill-38" fill="#FEFEFE" sketch:type="MSShapeGroup" mask="url(#mask-4)"></path>
            <path d="M219.9699,25.2756 C220.5849,25.2756 221.0629,24.9726 221.4039,24.3666 C221.7449,23.7596 221.9149,22.9026 221.9149,21.7926 L221.9149,20.7696 L220.8929,20.8246 C220.1029,20.8666 219.5159,21.0856 219.1329,21.4796 C218.7499,21.8756 218.5589,22.4526 218.5589,23.2126 C218.5589,23.9246 218.6849,24.4466 218.9389,24.7786 C219.1919,25.1096 219.5359,25.2756 219.9699,25.2756 L219.9699,25.2756 Z M222.0599,25.8276 L221.9509,24.4526 L221.9149,24.4526 C221.4449,25.4896 220.7329,26.0086 219.7799,26.0086 C219.1399,26.0086 218.6269,25.7536 218.2379,25.2436 C217.8479,24.7346 217.6539,24.0516 217.6539,23.1946 C217.6539,22.2596 217.9339,21.5196 218.4949,20.9736 C219.0559,20.4276 219.8429,20.1306 220.8569,20.0826 L221.9149,20.0286 L221.9149,19.2146 C221.9149,18.2976 221.7999,17.6296 221.5709,17.2106 C221.3419,16.7916 220.9619,16.5816 220.4309,16.5816 C219.8699,16.5816 219.2969,16.7656 218.7119,17.1336 L218.3419,16.4546 C219.0229,16.0326 219.7379,15.8216 220.4849,15.8216 C221.2939,15.8216 221.8759,16.0766 222.2319,16.5856 C222.5869,17.0956 222.7649,17.9476 222.7649,19.1416 L222.7649,25.8276 L222.0599,25.8276 Z" id="Fill-39" fill="#FEFEFE" sketch:type="MSShapeGroup" mask="url(#mask-4)"></path>
            <path d="M230.917,25.2572 C231.605,25.2572 232.134,24.9392 232.505,24.3032 C232.876,23.6672 233.061,22.7302 233.061,21.4942 L233.061,20.9332 C233.061,19.4492 232.882,18.3622 232.523,17.6722 C232.164,16.9812 231.617,16.6362 230.881,16.6362 C230.175,16.6362 229.668,17.0052 229.361,17.7442 C229.053,18.4832 228.9,19.5522 228.9,20.9512 C228.9,22.3622 229.059,23.4332 229.379,24.1632 C229.699,24.8922 230.212,25.2572 230.917,25.2572 M230.863,26.0082 C228.957,26.0082 228.004,24.3162 228.004,20.9332 C228.004,19.2682 228.242,18.0002 228.719,17.1282 C229.195,16.2572 229.898,15.8212 230.826,15.8212 C231.267,15.8212 231.685,15.9482 232.079,16.2012 C232.475,16.4552 232.79,16.8052 233.025,17.2502 L233.097,17.2502 L233.061,16.1562 L233.061,11.7502 L233.921,11.7502 L233.921,25.8272 L233.215,25.8272 L233.143,24.4522 L233.061,24.4522 C232.826,24.9532 232.521,25.3372 232.147,25.6052 C231.774,25.8742 231.345,26.0082 230.863,26.0082" id="Fill-40" fill="#FEFEFE" sketch:type="MSShapeGroup" mask="url(#mask-4)"></path>
            <path d="M238.7561,16.5995 C237.5741,16.5995 236.9261,17.7785 236.8111,20.1365 L240.5831,20.1365 C240.5831,19.0575 240.4191,18.1975 240.0911,17.5585 C239.7611,16.9195 239.3171,16.5995 238.7561,16.5995 M239.1451,26.0085 C238.1071,26.0085 237.3101,25.5665 236.7521,24.6825 C236.1941,23.7995 235.9151,22.5675 235.9151,20.9875 C235.9151,19.3105 236.1641,18.0305 236.6621,17.1465 C237.1591,16.2635 237.8751,15.8215 238.8101,15.8215 C239.6251,15.8215 240.2671,16.2085 240.7371,16.9835 C241.2081,17.7595 241.4431,18.8045 241.4431,20.1185 L241.4431,20.9145 L236.7931,20.9145 C236.8051,22.3445 237.0071,23.4145 237.3991,24.1265 C237.7911,24.8385 238.3851,25.1945 239.1811,25.1945 C239.7961,25.1945 240.4451,24.9915 241.1261,24.5885 L241.1261,25.4205 C240.4991,25.8125 239.8381,26.0085 239.1451,26.0085" id="Fill-41" fill="#FEFEFE" sketch:type="MSShapeGroup" mask="url(#mask-4)"></path>
            <path d="M246.872,12.601 L247.759,12.601 L247.759,25.828 L246.872,25.828 L246.872,12.601 Z" id="Fill-42" fill="#FEFEFE" sketch:type="MSShapeGroup" mask="url(#mask-4)"></path>
            <path d="M254.7654,25.8273 L254.7654,19.0603 C254.7654,17.4313 254.2824,16.6173 253.3174,16.6173 C252.5814,16.6173 252.0434,16.9223 251.7024,17.5313 C251.3624,18.1403 251.1914,19.1083 251.1914,20.4353 L251.1914,25.8273 L250.3324,25.8273 L250.3324,16.0113 L251.0564,16.0113 L251.1284,17.3773 L251.2094,17.3773 C251.4144,16.8833 251.7104,16.5003 252.0964,16.2283 C252.4824,15.9573 252.8954,15.8213 253.3354,15.8213 C254.0954,15.8213 254.6664,16.0763 255.0454,16.5853 C255.4254,17.0963 255.6154,17.9143 255.6154,19.0423 L255.6154,25.8273 L254.7654,25.8273 Z" id="Fill-43" fill="#FEFEFE" sketch:type="MSShapeGroup" mask="url(#mask-4)"></path>
            <path d="M260.5235,16.7717 L258.9855,16.7717 L258.9855,25.8277 L258.1355,25.8277 L258.1355,16.7717 L256.8865,16.7717 L256.8865,16.2827 L258.1355,15.9117 L258.1355,15.1707 C258.1355,13.9217 258.2835,13.0227 258.5785,12.4747 C258.8745,11.9257 259.3865,11.6507 260.1165,11.6507 C260.5385,11.6507 260.9215,11.7267 261.2655,11.8767 L260.9665,12.6737 C260.6475,12.5227 260.3575,12.4467 260.0985,12.4467 C259.8025,12.4467 259.5795,12.5347 259.4295,12.7097 C259.2775,12.8847 259.1665,13.1677 259.0945,13.5597 C259.0215,13.9517 258.9855,14.4947 258.9855,15.1887 L258.9855,16.0117 L260.5235,16.0117 L260.5235,16.7717 Z" id="Fill-44" fill="#FEFEFE" sketch:type="MSShapeGroup" mask="url(#mask-4)"></path>
            <path d="M262.365,20.8968 C262.365,22.3138 262.533,23.3848 262.871,24.1088 C263.209,24.8328 263.737,25.1938 264.455,25.1938 C265.86,25.1938 266.563,23.7618 266.563,20.8968 C266.563,18.0558 265.86,16.6358 264.455,16.6358 C263.719,16.6358 263.187,16.9918 262.858,17.7038 C262.529,18.4148 262.365,19.4798 262.365,20.8968 M267.458,20.8968 C267.458,22.5488 267.197,23.8138 266.676,24.6918 C266.154,25.5698 265.408,26.0088 264.437,26.0088 C263.478,26.0088 262.744,25.5698 262.234,24.6918 C261.724,23.8138 261.469,22.5488 261.469,20.8968 C261.469,17.5138 262.47,15.8218 264.473,15.8218 C265.414,15.8218 266.146,16.2648 266.671,17.1508 C267.196,18.0378 267.458,19.2868 267.458,20.8968" id="Fill-45" fill="#FEFEFE" sketch:type="MSShapeGroup" mask="url(#mask-4)"></path>
            <path d="M272.1582,15.8214 C272.4652,15.8214 272.7522,15.8634 273.0172,15.9484 L272.8092,16.8074 C272.5922,16.7164 272.3692,16.6724 272.1402,16.6724 C271.8082,16.6724 271.4992,16.8424 271.2132,17.1834 C270.9262,17.5234 270.7012,17.9984 270.5382,18.6074 C270.3752,19.2174 270.2942,19.8894 270.2942,20.6254 L270.2942,25.8274 L269.4352,25.8274 L269.4352,16.0114 L270.1402,16.0114 L270.2312,17.7304 L270.2942,17.7304 C270.7522,16.4574 271.3742,15.8214 272.1582,15.8214" id="Fill-46" fill="#FEFEFE" sketch:type="MSShapeGroup" mask="url(#mask-4)"></path>
            <path d="M282.6483,25.8273 L282.6483,19.1413 C282.6483,17.4953 282.1653,16.6723 281.2003,16.6723 C280.5373,16.6723 280.0593,16.9603 279.7663,17.5363 C279.4743,18.1123 279.3283,18.9603 279.3283,20.0823 L279.3283,25.8273 L278.4773,25.8273 L278.4773,19.1413 C278.4773,18.3093 278.3603,17.6893 278.1243,17.2823 C277.8893,16.8753 277.5243,16.6723 277.0303,16.6723 C276.3783,16.6723 275.9053,16.9673 275.6103,17.5583 C275.3143,18.1503 275.1663,19.1083 275.1663,20.4353 L275.1663,25.8273 L274.3073,25.8273 L274.3073,16.0113 L275.0313,16.0113 L275.1033,17.3773 L275.1843,17.3773 C275.5763,16.3403 276.2423,15.8213 277.1843,15.8213 C277.7263,15.8213 278.1543,15.9663 278.4683,16.2553 C278.7823,16.5453 279.0083,16.9673 279.1473,17.5223 C279.3823,16.9193 279.6723,16.4853 280.0153,16.2193 C280.3593,15.9543 280.8053,15.8213 281.3543,15.8213 C282.0963,15.8213 282.6393,16.1063 282.9823,16.6763 C283.3273,17.2463 283.4983,18.1583 283.4983,19.4133 L283.4983,25.8273 L282.6483,25.8273 Z" id="Fill-47" fill="#FEFEFE" sketch:type="MSShapeGroup" mask="url(#mask-4)"></path>
            <path d="M287.6194,25.2756 C288.2344,25.2756 288.7124,24.9726 289.0534,24.3666 C289.3944,23.7596 289.5644,22.9026 289.5644,21.7926 L289.5644,20.7696 L288.5424,20.8246 C287.7524,20.8666 287.1654,21.0856 286.7824,21.4796 C286.3994,21.8756 286.2084,22.4526 286.2084,23.2126 C286.2084,23.9246 286.3354,24.4466 286.5884,24.7786 C286.8414,25.1096 287.1854,25.2756 287.6194,25.2756 L287.6194,25.2756 Z M289.7094,25.8276 L289.6004,24.4526 L289.5644,24.4526 C289.0944,25.4896 288.3824,26.0086 287.4294,26.0086 C286.7894,26.0086 286.2764,25.7536 285.8874,25.2436 C285.4974,24.7346 285.3034,24.0516 285.3034,23.1946 C285.3034,22.2596 285.5834,21.5196 286.1444,20.9736 C286.7054,20.4276 287.4924,20.1306 288.5064,20.0826 L289.5644,20.0286 L289.5644,19.2146 C289.5644,18.2976 289.4494,17.6296 289.2204,17.2106 C288.9914,16.7916 288.6114,16.5816 288.0804,16.5816 C287.5204,16.5816 286.9464,16.7656 286.3614,17.1336 L285.9914,16.4546 C286.6724,16.0326 287.3874,15.8216 288.1344,15.8216 C288.9434,15.8216 289.5254,16.0766 289.8814,16.5856 C290.2364,17.0956 290.4144,17.9476 290.4144,19.1416 L290.4144,25.8276 L289.7094,25.8276 Z" id="Fill-48" fill="#FEFEFE" sketch:type="MSShapeGroup" mask="url(#mask-4)"></path>
            <path d="M295.3417,26.0084 C294.3587,26.0084 293.6177,25.5814 293.1207,24.7284 C292.6227,23.8744 292.3747,22.6214 292.3747,20.9694 C292.3747,19.2924 292.6257,18.0154 293.1297,17.1384 C293.6327,16.2604 294.3767,15.8214 295.3597,15.8214 C295.9687,15.8214 296.4747,15.9334 296.8797,16.1564 L296.5447,16.9164 C296.1407,16.7294 295.7697,16.6354 295.4317,16.6354 C293.9907,16.6354 293.2697,18.0744 293.2697,20.9514 C293.2697,23.8034 293.9907,25.2304 295.4317,25.2304 C295.8607,25.2304 296.3247,25.1344 296.8247,24.9404 L296.8247,25.6644 C296.6257,25.7734 296.3817,25.8574 296.0927,25.9174 C295.8027,25.9774 295.5527,26.0084 295.3417,26.0084" id="Fill-49" fill="#FEFEFE" sketch:type="MSShapeGroup" mask="url(#mask-4)"></path>
            <path d="M299.236,25.827 L298.377,25.827 L298.377,16.011 L299.236,16.011 L299.236,25.827 Z M298.25,13.288 C298.25,13.017 298.305,12.806 298.417,12.655 C298.529,12.504 298.672,12.429 298.847,12.429 C299.01,12.429 299.139,12.504 299.236,12.655 C299.333,12.806 299.38,13.017 299.38,13.288 C299.38,13.548 299.333,13.754 299.236,13.908 C299.139,14.062 299.01,14.139 298.847,14.139 C298.672,14.139 298.529,14.062 298.417,13.908 C298.305,13.754 298.25,13.548 298.25,13.288 L298.25,13.288 Z" id="Fill-50" fill="#FEFEFE" sketch:type="MSShapeGroup" mask="url(#mask-4)"></path>
            <path d="M303.4477,14.6001 L303.4477,14.4101 C304.2137,13.4091 304.7897,12.4831 305.1757,11.6331 L306.3067,11.6331 L306.3067,11.7871 C306.0717,12.2091 305.7137,12.6941 305.2347,13.2431 C304.7547,13.7921 304.3007,14.2441 303.8727,14.6001 L303.4477,14.6001 Z M302.1087,20.8971 C302.1087,22.3141 302.2777,23.3851 302.6157,24.1081 C302.9537,24.8321 303.4807,25.1941 304.1987,25.1941 C305.6037,25.1941 306.3067,23.7611 306.3067,20.8971 C306.3067,18.0561 305.6037,16.6361 304.1987,16.6361 C303.4627,16.6361 302.9307,16.9921 302.6017,17.7031 C302.2737,18.4151 302.1087,19.4791 302.1087,20.8971 L302.1087,20.8971 Z M307.2017,20.8971 C307.2017,22.5491 306.9407,23.8141 306.4197,24.6921 C305.8977,25.5691 305.1517,26.0081 304.1807,26.0081 C303.2217,26.0081 302.4877,25.5691 301.9777,24.6921 C301.4677,23.8141 301.2127,22.5491 301.2127,20.8971 C301.2127,17.5131 302.2147,15.8211 304.2167,15.8211 C305.1577,15.8211 305.8907,16.2651 306.4147,17.1511 C306.9397,18.0381 307.2017,19.2861 307.2017,20.8971 L307.2017,20.8971 Z" id="Fill-51" fill="#FEFEFE" sketch:type="MSShapeGroup" mask="url(#mask-4)"></path>
            <path d="M313.612,25.8273 L313.612,19.0603 C313.612,17.4313 313.129,16.6173 312.164,16.6173 C311.428,16.6173 310.89,16.9223 310.549,17.5313 C310.209,18.1403 310.038,19.1083 310.038,20.4353 L310.038,25.8273 L309.179,25.8273 L309.179,16.0113 L309.903,16.0113 L309.975,17.3773 L310.056,17.3773 C310.261,16.8833 310.557,16.5003 310.943,16.2283 C311.329,15.9573 311.742,15.8213 312.182,15.8213 C312.942,15.8213 313.512,16.0763 313.892,16.5853 C314.272,17.0963 314.462,17.9143 314.462,19.0423 L314.462,25.8273 L313.612,25.8273 Z" id="Fill-52" fill="#FEFEFE" sketch:type="MSShapeGroup" mask="url(#mask-4)"></path>
            <path d="M183.474,41.6097 C183.474,42.4357 183.257,43.0827 182.822,43.5497 C182.389,44.0177 181.761,44.2517 180.941,44.2517 C180.494,44.2517 180.102,44.1937 179.765,44.0787 C179.427,43.9647 179.165,43.8377 178.978,43.6987 L178.978,42.6947 C179.2,42.9187 179.496,43.0977 179.864,43.2337 C180.232,43.3687 180.609,43.4367 180.995,43.4367 C181.501,43.4367 181.9,43.2707 182.189,42.9397 C182.479,42.6077 182.623,42.1647 182.623,41.6097 C182.623,41.1757 182.52,40.8087 182.311,40.5107 C182.103,40.2117 181.707,39.8727 181.122,39.4927 C180.452,39.0697 179.995,38.7327 179.751,38.4797 C179.507,38.2257 179.317,37.9427 179.181,37.6287 C179.046,37.3157 178.978,36.9417 178.978,36.5067 C178.978,35.8017 179.216,35.2177 179.692,34.7567 C180.169,34.2947 180.775,34.0647 181.511,34.0647 C182.301,34.0647 182.961,34.2517 183.492,34.6257 L183.049,35.3767 C182.554,35.0447 182.029,34.8787 181.475,34.8787 C180.968,34.8787 180.564,35.0277 180.262,35.3267 C179.961,35.6257 179.81,36.0187 179.81,36.5067 C179.81,36.9417 179.912,37.3047 180.117,37.5977 C180.322,37.8897 180.757,38.2447 181.42,38.6597 C182.072,39.0887 182.518,39.4307 182.759,39.6867 C183,39.9437 183.18,40.2267 183.298,40.5377 C183.415,40.8477 183.474,41.2057 183.474,41.6097" id="Fill-53" fill="#FEFEFE" sketch:type="MSShapeGroup" mask="url(#mask-4)"></path>
            <path d="M185.7045,39.1397 C185.7045,40.5567 185.8725,41.6277 186.2105,42.3517 C186.5485,43.0757 187.0765,43.4367 187.7945,43.4367 C189.1995,43.4367 189.9025,42.0047 189.9025,39.1397 C189.9025,36.2987 189.1995,34.8787 187.7945,34.8787 C187.0585,34.8787 186.5265,35.2347 186.1975,35.9467 C185.8685,36.6577 185.7045,37.7227 185.7045,39.1397 M190.7975,39.1397 C190.7975,40.7917 190.5365,42.0567 190.0155,42.9347 C189.4935,43.8127 188.7475,44.2517 187.7765,44.2517 C186.8175,44.2517 186.0825,43.8127 185.5735,42.9347 C185.0635,42.0567 184.8085,40.7917 184.8085,39.1397 C184.8085,35.7567 185.8095,34.0647 187.8125,34.0647 C188.7535,34.0647 189.4855,34.5077 190.0105,35.3937 C190.5355,36.2807 190.7975,37.5297 190.7975,39.1397" id="Fill-54" fill="#FEFEFE" sketch:type="MSShapeGroup" mask="url(#mask-4)"></path>
            <path d="M195.7777,34.8788 C195.0237,34.8788 194.4777,35.2108 194.1407,35.8738 C193.8027,36.5378 193.6337,37.6258 193.6337,39.1398 L193.6337,39.3658 C193.6337,42.1038 194.3607,43.4738 195.8137,43.4738 C196.4777,43.4738 196.9737,43.1208 197.3027,42.4148 C197.6307,41.7088 197.7957,40.6178 197.7957,39.1398 C197.7957,37.7228 197.6357,36.6578 197.3157,35.9468 C196.9957,35.2348 196.4837,34.8788 195.7777,34.8788 M195.8137,34.0828 C197.7317,34.0828 198.6907,35.7688 198.6907,39.1398 C198.6907,40.8048 198.4527,42.0728 197.9757,42.9438 C197.4997,43.8158 196.8117,44.2518 195.9137,44.2518 C195.4427,44.2518 195.0147,44.1218 194.6287,43.8628 C194.2427,43.6028 193.9227,43.2198 193.6697,42.7128 L193.5977,42.7128 L193.4797,44.0698 L192.7747,44.0698 L192.7747,29.9938 L193.6337,29.9938 L193.6337,34.3628 L193.5977,35.5488 L193.6697,35.5488 C194.1887,34.5718 194.9037,34.0828 195.8137,34.0828" id="Fill-55" fill="#FEFEFE" sketch:type="MSShapeGroup" mask="url(#mask-4)"></path>
            <path d="M203.391,34.0644 C203.698,34.0644 203.985,34.1064 204.25,34.1914 L204.042,35.0504 C203.825,34.9594 203.602,34.9154 203.373,34.9154 C203.041,34.9154 202.732,35.0854 202.446,35.4264 C202.159,35.7664 201.934,36.2414 201.771,36.8504 C201.608,37.4604 201.527,38.1324 201.527,38.8684 L201.527,44.0704 L200.668,44.0704 L200.668,34.2544 L201.373,34.2544 L201.464,35.9734 L201.527,35.9734 C201.985,34.7004 202.607,34.0644 203.391,34.0644" id="Fill-56" fill="#FEFEFE" sketch:type="MSShapeGroup" mask="url(#mask-4)"></path>
            <path d="M207.9372,34.8425 C206.7552,34.8425 206.1072,36.0215 205.9922,38.3795 L209.7642,38.3795 C209.7642,37.3005 209.6002,36.4405 209.2722,35.8015 C208.9422,35.1625 208.4982,34.8425 207.9372,34.8425 M208.3262,44.2515 C207.2882,44.2515 206.4912,43.8095 205.9332,42.9255 C205.3752,42.0425 205.0962,40.8105 205.0962,39.2305 C205.0962,37.5535 205.3452,36.2735 205.8432,35.3895 C206.3402,34.5065 207.0562,34.0645 207.9912,34.0645 C208.8062,34.0645 209.4482,34.4515 209.9182,35.2265 C210.3892,36.0025 210.6242,37.0475 210.6242,38.3615 L210.6242,39.1575 L205.9742,39.1575 C205.9862,40.5875 206.1882,41.6575 206.5802,42.3695 C206.9722,43.0815 207.5662,43.4375 208.3622,43.4375 C208.9772,43.4375 209.6262,43.2345 210.3072,42.8315 L210.3072,43.6635 C209.6802,44.0555 209.0192,44.2515 208.3262,44.2515" id="Fill-57" fill="#FEFEFE" sketch:type="MSShapeGroup" mask="url(#mask-4)"></path>
            <path d="M216.9392,37.5473 L216.9392,43.2563 L218.9742,43.2563 C220.4342,43.2563 221.1642,42.2673 221.1642,40.2893 C221.1642,39.4083 220.9492,38.7313 220.5212,38.2573 C220.0932,37.7843 219.4932,37.5473 218.7212,37.5473 L216.9392,37.5473 Z M216.9392,36.7333 L218.6042,36.7333 C219.4302,36.7333 220.0192,36.5053 220.3722,36.0503 C220.7252,35.5943 220.9012,34.9033 220.9012,33.9743 C220.9012,33.2263 220.7072,32.6533 220.3182,32.2553 C219.9292,31.8573 219.3512,31.6583 218.5852,31.6583 L216.9392,31.6583 L216.9392,36.7333 Z M216.0522,30.8433 L218.5852,30.8433 C219.6232,30.8433 220.4202,31.1093 220.9782,31.6403 C221.5362,32.1713 221.8152,32.9543 221.8152,33.9923 C221.8152,35.7833 221.1602,36.8083 219.8522,37.0683 L219.8522,37.1403 C220.6062,37.2973 221.1672,37.6333 221.5352,38.1493 C221.9032,38.6653 222.0862,39.3843 222.0862,40.3073 C222.0862,41.4893 221.8242,42.4113 221.2992,43.0753 C220.7752,43.7383 220.0392,44.0703 219.0922,44.0703 L216.0522,44.0703 L216.0522,30.8433 Z" id="Fill-58" fill="#FEFEFE" sketch:type="MSShapeGroup" mask="url(#mask-4)"></path>
            <path d="M224.796,44.07 L223.937,44.07 L223.937,34.254 L224.796,34.254 L224.796,44.07 Z M223.81,31.531 C223.81,31.26 223.866,31.049 223.978,30.898 C224.089,30.747 224.232,30.672 224.407,30.672 C224.57,30.672 224.7,30.747 224.796,30.898 C224.893,31.049 224.941,31.26 224.941,31.531 C224.941,31.791 224.893,31.997 224.796,32.151 C224.7,32.305 224.57,32.382 224.407,32.382 C224.232,32.382 224.089,32.305 223.978,32.151 C223.866,31.997 223.81,31.791 223.81,31.531 L223.81,31.531 Z" id="Fill-59" fill="#FEFEFE" sketch:type="MSShapeGroup" mask="url(#mask-4)"></path>
            <path d="M227.6695,39.1397 C227.6695,40.5567 227.8375,41.6277 228.1755,42.3517 C228.5135,43.0757 229.0415,43.4367 229.7595,43.4367 C231.1645,43.4367 231.8675,42.0047 231.8675,39.1397 C231.8675,36.2987 231.1645,34.8787 229.7595,34.8787 C229.0235,34.8787 228.4915,35.2347 228.1625,35.9467 C227.8335,36.6577 227.6695,37.7227 227.6695,39.1397 M232.7625,39.1397 C232.7625,40.7917 232.5015,42.0567 231.9805,42.9347 C231.4585,43.8127 230.7125,44.2517 229.7415,44.2517 C228.7825,44.2517 228.0475,43.8127 227.5385,42.9347 C227.0285,42.0567 226.7735,40.7917 226.7735,39.1397 C226.7735,35.7567 227.7745,34.0647 229.7775,34.0647 C230.7185,34.0647 231.4505,34.5077 231.9755,35.3937 C232.5005,36.2807 232.7625,37.5297 232.7625,39.1397" id="Fill-60" fill="#FEFEFE" sketch:type="MSShapeGroup" mask="url(#mask-4)"></path>
            <path d="M237.191,43.5002 C237.879,43.5002 238.408,43.1822 238.779,42.5462 C239.15,41.9102 239.335,40.9732 239.335,39.7372 L239.335,39.1762 C239.335,37.6922 239.156,36.6052 238.797,35.9152 C238.438,35.2242 237.891,34.8792 237.155,34.8792 C236.449,34.8792 235.942,35.2482 235.635,35.9872 C235.327,36.7262 235.174,37.7952 235.174,39.1942 C235.174,40.6052 235.333,41.6762 235.653,42.4062 C235.973,43.1352 236.486,43.5002 237.191,43.5002 M237.137,44.2512 C235.231,44.2512 234.278,42.5592 234.278,39.1762 C234.278,37.5112 234.516,36.2432 234.993,35.3712 C235.469,34.5002 236.172,34.0642 237.1,34.0642 C237.541,34.0642 237.959,34.1912 238.353,34.4442 C238.749,34.6982 239.064,35.0482 239.299,35.4932 L239.371,35.4932 L239.335,34.3992 L239.335,29.9932 L240.195,29.9932 L240.195,44.0702 L239.489,44.0702 L239.417,42.6952 L239.335,42.6952 C239.1,43.1962 238.795,43.5802 238.421,43.8482 C238.047,44.1172 237.619,44.2512 237.137,44.2512" id="Fill-61" fill="#FEFEFE" sketch:type="MSShapeGroup" mask="url(#mask-4)"></path>
            <path d="M243.492,44.07 L242.633,44.07 L242.633,34.254 L243.492,34.254 L243.492,44.07 Z M242.506,31.531 C242.506,31.26 242.562,31.049 242.673,30.898 C242.785,30.747 242.928,30.672 243.103,30.672 C243.266,30.672 243.396,30.747 243.492,30.898 C243.589,31.049 243.637,31.26 243.637,31.531 C243.637,31.791 243.589,31.997 243.492,32.151 C243.396,32.305 243.266,32.382 243.103,32.382 C242.928,32.382 242.785,32.305 242.673,32.151 C242.562,31.997 242.506,31.791 242.506,31.531 L242.506,31.531 Z" id="Fill-62" fill="#FEFEFE" sketch:type="MSShapeGroup" mask="url(#mask-4)"></path>
            <path d="M247.0253,44.0703 L244.7093,34.2543 L245.5783,34.2543 L247.0433,40.5693 C247.2123,41.2993 247.3753,42.0953 247.5323,42.9573 L247.6043,42.9573 C247.6463,42.6443 247.7073,42.2943 247.7853,41.9083 C247.8643,41.5223 248.4573,38.9703 249.5673,34.2543 L250.4363,34.2543 L248.0473,44.0703 L247.0253,44.0703 Z" id="Fill-63" fill="#FEFEFE" sketch:type="MSShapeGroup" mask="url(#mask-4)"></path>
            <path d="M254.0505,34.8425 C252.8685,34.8425 252.2205,36.0215 252.1055,38.3795 L255.8775,38.3795 C255.8775,37.3005 255.7135,36.4405 255.3855,35.8015 C255.0555,35.1625 254.6115,34.8425 254.0505,34.8425 M254.4395,44.2515 C253.4015,44.2515 252.6045,43.8095 252.0465,42.9255 C251.4885,42.0425 251.2095,40.8105 251.2095,39.2305 C251.2095,37.5535 251.4585,36.2735 251.9565,35.3895 C252.4535,34.5065 253.1695,34.0645 254.1045,34.0645 C254.9195,34.0645 255.5615,34.4515 256.0315,35.2265 C256.5025,36.0025 256.7375,37.0475 256.7375,38.3615 L256.7375,39.1575 L252.0875,39.1575 C252.0995,40.5875 252.3015,41.6575 252.6935,42.3695 C253.0855,43.0815 253.6795,43.4375 254.4755,43.4375 C255.0905,43.4375 255.7395,43.2345 256.4205,42.8315 L256.4205,43.6635 C255.7935,44.0555 255.1325,44.2515 254.4395,44.2515" id="Fill-64" fill="#FEFEFE" sketch:type="MSShapeGroup" mask="url(#mask-4)"></path>
            <path d="M261.4558,34.0644 C261.7628,34.0644 262.0498,34.1064 262.3148,34.1914 L262.1068,35.0504 C261.8898,34.9594 261.6668,34.9154 261.4378,34.9154 C261.1058,34.9154 260.7968,35.0854 260.5108,35.4264 C260.2238,35.7664 259.9988,36.2414 259.8358,36.8504 C259.6728,37.4604 259.5918,38.1324 259.5918,38.8684 L259.5918,44.0704 L258.7328,44.0704 L258.7328,34.2544 L259.4378,34.2544 L259.5288,35.9734 L259.5918,35.9734 C260.0498,34.7004 260.6718,34.0644 261.4558,34.0644" id="Fill-65" fill="#FEFEFE" sketch:type="MSShapeGroup" mask="url(#mask-4)"></path>
            <path d="M267.4582,41.6097 C267.4582,42.4357 267.2412,43.0827 266.8062,43.5497 C266.3722,44.0177 265.7452,44.2517 264.9252,44.2517 C264.4782,44.2517 264.0862,44.1937 263.7492,44.0787 C263.4112,43.9647 263.1492,43.8377 262.9622,43.6987 L262.9622,42.6947 C263.1842,42.9187 263.4802,43.0977 263.8482,43.2337 C264.2162,43.3687 264.5932,43.4367 264.9792,43.4367 C265.4852,43.4367 265.8842,43.2707 266.1732,42.9397 C266.4632,42.6077 266.6072,42.1647 266.6072,41.6097 C266.6072,41.1757 266.5042,40.8087 266.2952,40.5107 C266.0872,40.2117 265.6912,39.8727 265.1062,39.4927 C264.4362,39.0697 263.9792,38.7327 263.7352,38.4797 C263.4912,38.2257 263.3012,37.9427 263.1652,37.6287 C263.0302,37.3157 262.9622,36.9417 262.9622,36.5067 C262.9622,35.8017 263.2002,35.2177 263.6762,34.7567 C264.1532,34.2947 264.7592,34.0647 265.4952,34.0647 C266.2852,34.0647 266.9452,34.2517 267.4762,34.6257 L267.0332,35.3767 C266.5382,35.0447 266.0132,34.8787 265.4592,34.8787 C264.9522,34.8787 264.5482,35.0277 264.2462,35.3267 C263.9452,35.6257 263.7942,36.0187 263.7942,36.5067 C263.7942,36.9417 263.8962,37.3047 264.1012,37.5977 C264.3062,37.8897 264.7412,38.2447 265.4042,38.6597 C266.0562,39.0887 266.5022,39.4307 266.7432,39.6867 C266.9842,39.9437 267.1642,40.2267 267.2822,40.5377 C267.3992,40.8477 267.4582,41.2057 267.4582,41.6097" id="Fill-66" fill="#FEFEFE" sketch:type="MSShapeGroup" mask="url(#mask-4)"></path>
            <path d="M270.113,44.07 L269.254,44.07 L269.254,34.254 L270.113,34.254 L270.113,44.07 Z M269.128,31.531 C269.128,31.26 269.183,31.049 269.295,30.898 C269.406,30.747 269.55,30.672 269.724,30.672 C269.888,30.672 270.017,30.747 270.113,30.898 C270.21,31.049 270.258,31.26 270.258,31.531 C270.258,31.791 270.21,31.997 270.113,32.151 C270.017,32.305 269.888,32.382 269.724,32.382 C269.55,32.382 269.406,32.305 269.295,32.151 C269.183,31.997 269.128,31.791 269.128,31.531 L269.128,31.531 Z" id="Fill-67" fill="#FEFEFE" sketch:type="MSShapeGroup" mask="url(#mask-4)"></path>
            <path d="M275.0035,43.5002 C275.6915,43.5002 276.2205,43.1822 276.5915,42.5462 C276.9625,41.9102 277.1475,40.9732 277.1475,39.7372 L277.1475,39.1762 C277.1475,37.6922 276.9685,36.6052 276.6095,35.9152 C276.2505,35.2242 275.7035,34.8792 274.9675,34.8792 C274.2615,34.8792 273.7545,35.2482 273.4475,35.9872 C273.1395,36.7262 272.9865,37.7952 272.9865,39.1942 C272.9865,40.6052 273.1455,41.6762 273.4655,42.4062 C273.7855,43.1352 274.2985,43.5002 275.0035,43.5002 M274.9495,44.2512 C273.0435,44.2512 272.0905,42.5592 272.0905,39.1762 C272.0905,37.5112 272.3285,36.2432 272.8055,35.3712 C273.2815,34.5002 273.9845,34.0642 274.9125,34.0642 C275.3535,34.0642 275.7715,34.1912 276.1655,34.4442 C276.5615,34.6982 276.8765,35.0482 277.1115,35.4932 L277.1835,35.4932 L277.1475,34.3992 L277.1475,29.9932 L278.0075,29.9932 L278.0075,44.0702 L277.3015,44.0702 L277.2295,42.6952 L277.1475,42.6952 C276.9125,43.1962 276.6075,43.5802 276.2335,43.8482 C275.8605,44.1172 275.4315,44.2512 274.9495,44.2512" id="Fill-68" fill="#FEFEFE" sketch:type="MSShapeGroup" mask="url(#mask-4)"></path>
            <path d="M282.1551,43.5186 C282.7701,43.5186 283.2481,43.2156 283.5891,42.6096 C283.9301,42.0026 284.1001,41.1456 284.1001,40.0356 L284.1001,39.0126 L283.0781,39.0676 C282.2881,39.1096 281.7011,39.3286 281.3181,39.7226 C280.9351,40.1186 280.7441,40.6956 280.7441,41.4556 C280.7441,42.1676 280.8711,42.6896 281.1241,43.0216 C281.3771,43.3526 281.7211,43.5186 282.1551,43.5186 L282.1551,43.5186 Z M284.2451,44.0706 L284.1361,42.6956 L284.1001,42.6956 C283.6301,43.7326 282.9181,44.2516 281.9651,44.2516 C281.3251,44.2516 280.8121,43.9966 280.4231,43.4866 C280.0331,42.9776 279.8391,42.2946 279.8391,41.4376 C279.8391,40.5026 280.1191,39.7626 280.6801,39.2166 C281.2411,38.6706 282.0281,38.3736 283.0421,38.3256 L284.1001,38.2716 L284.1001,37.4576 C284.1001,36.5406 283.9851,35.8726 283.7561,35.4536 C283.5271,35.0346 283.1471,34.8246 282.6161,34.8246 C282.0561,34.8246 281.4821,35.0086 280.8971,35.3766 L280.5271,34.6976 C281.2081,34.2756 281.9231,34.0646 282.6701,34.0646 C283.4791,34.0646 284.0611,34.3196 284.4171,34.8286 C284.7721,35.3386 284.9501,36.1906 284.9501,37.3846 L284.9501,44.0706 L284.2451,44.0706 Z" id="Fill-69" fill="#FEFEFE" sketch:type="MSShapeGroup" mask="url(#mask-4)"></path>
            <path d="M289.8047,43.5002 C290.4927,43.5002 291.0217,43.1822 291.3927,42.5462 C291.7637,41.9102 291.9487,40.9732 291.9487,39.7372 L291.9487,39.1762 C291.9487,37.6922 291.7697,36.6052 291.4107,35.9152 C291.0517,35.2242 290.5047,34.8792 289.7687,34.8792 C289.0627,34.8792 288.5557,35.2482 288.2487,35.9872 C287.9407,36.7262 287.7877,37.7952 287.7877,39.1942 C287.7877,40.6052 287.9467,41.6762 288.2667,42.4062 C288.5867,43.1352 289.0997,43.5002 289.8047,43.5002 M289.7507,44.2512 C287.8447,44.2512 286.8917,42.5592 286.8917,39.1762 C286.8917,37.5112 287.1297,36.2432 287.6067,35.3712 C288.0827,34.5002 288.7857,34.0642 289.7137,34.0642 C290.1547,34.0642 290.5727,34.1912 290.9667,34.4442 C291.3627,34.6982 291.6777,35.0482 291.9127,35.4932 L291.9847,35.4932 L291.9487,34.3992 L291.9487,29.9932 L292.8087,29.9932 L292.8087,44.0702 L292.1027,44.0702 L292.0307,42.6952 L291.9487,42.6952 C291.7137,43.1962 291.4087,43.5802 291.0347,43.8482 C290.6617,44.1172 290.2327,44.2512 289.7507,44.2512" id="Fill-70" fill="#FEFEFE" sketch:type="MSShapeGroup" mask="url(#mask-4)"></path>
            <path d="M182.0716,61.7426 C182.7596,61.7426 183.2886,61.4246 183.6596,60.7886 C184.0306,60.1526 184.2156,59.2156 184.2156,57.9796 L184.2156,57.4186 C184.2156,55.9346 184.0366,54.8476 183.6776,54.1576 C183.3186,53.4666 182.7716,53.1216 182.0356,53.1216 C181.3296,53.1216 180.8226,53.4906 180.5156,54.2296 C180.2076,54.9686 180.0546,56.0376 180.0546,57.4366 C180.0546,58.8476 180.2136,59.9186 180.5336,60.6486 C180.8536,61.3776 181.3666,61.7426 182.0716,61.7426 M182.0176,62.4936 C180.1116,62.4936 179.1586,60.8016 179.1586,57.4186 C179.1586,55.7536 179.3966,54.4856 179.8736,53.6136 C180.3496,52.7426 181.0526,52.3066 181.9806,52.3066 C182.4216,52.3066 182.8396,52.4336 183.2336,52.6866 C183.6296,52.9406 183.9446,53.2906 184.1796,53.7366 L184.2516,53.7366 L184.2156,52.6416 L184.2156,48.2356 L185.0756,48.2356 L185.0756,62.3126 L184.3696,62.3126 L184.2976,60.9376 L184.2156,60.9376 C183.9806,61.4386 183.6756,61.8226 183.3016,62.0916 C182.9286,62.3596 182.4996,62.4936 182.0176,62.4936" id="Fill-71" fill="#FEFEFE" sketch:type="MSShapeGroup" mask="url(#mask-4)"></path>
            <path d="M189.9106,53.0849 C188.7286,53.0849 188.0806,54.2639 187.9656,56.6219 L191.7376,56.6219 C191.7376,55.5429 191.5736,54.6829 191.2456,54.0439 C190.9156,53.4049 190.4716,53.0849 189.9106,53.0849 M190.2996,62.4939 C189.2616,62.4939 188.4646,62.0519 187.9066,61.1679 C187.3486,60.2849 187.0696,59.0529 187.0696,57.4729 C187.0696,55.7959 187.3186,54.5159 187.8166,53.6319 C188.3136,52.7489 189.0296,52.3069 189.9646,52.3069 C190.7796,52.3069 191.4216,52.6939 191.8916,53.4689 C192.3626,54.2449 192.5976,55.2899 192.5976,56.6039 L192.5976,57.3999 L187.9476,57.3999 C187.9596,58.8299 188.1616,59.8999 188.5536,60.6119 C188.9456,61.3239 189.5396,61.6799 190.3356,61.6799 C190.9506,61.6799 191.5996,61.4769 192.2806,61.0739 L192.2806,61.9059 C191.6536,62.2979 190.9926,62.4939 190.2996,62.4939" id="Fill-72" fill="#FEFEFE" sketch:type="MSShapeGroup" mask="url(#mask-4)"></path>
            <path d="M201.7627,49.7284 C200.7677,49.7284 199.9757,50.2544 199.3877,51.3074 C198.7997,52.3604 198.5057,53.8174 198.5057,55.6814 C198.5057,56.8934 198.6417,57.9494 198.9127,58.8474 C199.1847,59.7464 199.5737,60.4374 200.0807,60.9194 C200.5867,61.4024 201.1747,61.6434 201.8447,61.6434 C202.5317,61.6434 203.1227,61.5204 203.6177,61.2724 L203.6177,62.0864 C203.1467,62.3584 202.5287,62.4934 201.7627,62.4934 C200.9247,62.4934 200.1907,62.2224 199.5597,61.6794 C198.9297,61.1364 198.4427,60.3514 198.0987,59.3224 C197.7547,58.2944 197.5837,57.0744 197.5837,55.6634 C197.5837,53.5524 197.9587,51.8944 198.7097,50.6874 C199.4597,49.4814 200.4837,48.8784 201.7807,48.8784 C202.5887,48.8784 203.2947,49.0654 203.8977,49.4384 L203.4907,50.2174 C202.9837,49.8914 202.4077,49.7284 201.7627,49.7284" id="Fill-73" fill="#FEFEFE" sketch:type="MSShapeGroup" mask="url(#mask-4)"></path>
            <path d="M205.92,57.3821 C205.92,58.7991 206.088,59.8701 206.426,60.5941 C206.764,61.3181 207.292,61.6791 208.01,61.6791 C209.415,61.6791 210.118,60.2471 210.118,57.3821 C210.118,54.5411 209.415,53.1211 208.01,53.1211 C207.274,53.1211 206.742,53.4771 206.413,54.1891 C206.084,54.9001 205.92,55.9651 205.92,57.3821 M211.013,57.3821 C211.013,59.0341 210.752,60.2991 210.231,61.1771 C209.709,62.0551 208.963,62.4941 207.992,62.4941 C207.033,62.4941 206.299,62.0551 205.789,61.1771 C205.279,60.2991 205.024,59.0341 205.024,57.3821 C205.024,53.9991 206.025,52.3071 208.028,52.3071 C208.969,52.3071 209.701,52.7501 210.226,53.6361 C210.751,54.5231 211.013,55.7721 211.013,57.3821" id="Fill-74" fill="#FEFEFE" sketch:type="MSShapeGroup" mask="url(#mask-4)"></path>
            <path d="M213.849,62.313 L212.99,62.313 L212.99,48.236 L213.849,48.236 L213.849,62.313 Z" id="Fill-75" fill="#FEFEFE" sketch:type="MSShapeGroup" mask="url(#mask-4)"></path>
            <path d="M216.7223,57.3821 C216.7223,58.7991 216.8903,59.8701 217.2283,60.5941 C217.5663,61.3181 218.0943,61.6791 218.8123,61.6791 C220.2173,61.6791 220.9203,60.2471 220.9203,57.3821 C220.9203,54.5411 220.2173,53.1211 218.8123,53.1211 C218.0763,53.1211 217.5443,53.4771 217.2153,54.1891 C216.8863,54.9001 216.7223,55.9651 216.7223,57.3821 M221.8153,57.3821 C221.8153,59.0341 221.5543,60.2991 221.0333,61.1771 C220.5113,62.0551 219.7653,62.4941 218.7943,62.4941 C217.8353,62.4941 217.1013,62.0551 216.5913,61.1771 C216.0813,60.2991 215.8263,59.0341 215.8263,57.3821 C215.8263,53.9991 216.8273,52.3071 218.8303,52.3071 C219.7713,52.3071 220.5033,52.7501 221.0283,53.6361 C221.5533,54.5231 221.8153,55.7721 221.8153,57.3821" id="Fill-76" fill="#FEFEFE" sketch:type="MSShapeGroup" mask="url(#mask-4)"></path>
            <path d="M232.1336,62.3127 L232.1336,55.6267 C232.1336,53.9807 231.6506,53.1577 230.6856,53.1577 C230.0226,53.1577 229.5446,53.4457 229.2516,54.0217 C228.9596,54.5977 228.8136,55.4457 228.8136,56.5677 L228.8136,62.3127 L227.9626,62.3127 L227.9626,55.6267 C227.9626,54.7947 227.8456,54.1747 227.6096,53.7677 C227.3746,53.3607 227.0096,53.1577 226.5156,53.1577 C225.8636,53.1577 225.3906,53.4527 225.0956,54.0437 C224.7996,54.6357 224.6516,55.5937 224.6516,56.9207 L224.6516,62.3127 L223.7926,62.3127 L223.7926,52.4967 L224.5166,52.4967 L224.5886,53.8627 L224.6696,53.8627 C225.0616,52.8257 225.7276,52.3067 226.6696,52.3067 C227.2116,52.3067 227.6396,52.4517 227.9536,52.7407 C228.2676,53.0307 228.4936,53.4527 228.6326,54.0077 C228.8676,53.4047 229.1576,52.9707 229.5006,52.7047 C229.8446,52.4397 230.2906,52.3067 230.8396,52.3067 C231.5816,52.3067 232.1246,52.5917 232.4676,53.1617 C232.8126,53.7317 232.9836,54.6437 232.9836,55.8987 L232.9836,62.3127 L232.1336,62.3127 Z" id="Fill-77" fill="#FEFEFE" sketch:type="MSShapeGroup" mask="url(#mask-4)"></path>
            <path d="M238.3987,53.1212 C237.6447,53.1212 237.0987,53.4532 236.7617,54.1162 C236.4237,54.7802 236.2547,55.8682 236.2547,57.3822 L236.2547,57.6082 C236.2547,60.3462 236.9817,61.7162 238.4347,61.7162 C239.0987,61.7162 239.5947,61.3632 239.9237,60.6572 C240.2517,59.9512 240.4167,58.8602 240.4167,57.3822 C240.4167,55.9652 240.2567,54.9002 239.9367,54.1892 C239.6167,53.4772 239.1047,53.1212 238.3987,53.1212 M238.4347,52.3252 C240.3527,52.3252 241.3117,54.0112 241.3117,57.3822 C241.3117,59.0472 241.0737,60.3152 240.5967,61.1862 C240.1207,62.0582 239.4327,62.4942 238.5347,62.4942 C238.0637,62.4942 237.6357,62.3642 237.2497,62.1052 C236.8637,61.8452 236.5437,61.4622 236.2907,60.9552 L236.2187,60.9552 L236.1007,62.3122 L235.3957,62.3122 L235.3957,48.2362 L236.2547,48.2362 L236.2547,52.6052 L236.2187,53.7912 L236.2907,53.7912 C236.8097,52.8142 237.5247,52.3252 238.4347,52.3252" id="Fill-78" fill="#FEFEFE" sketch:type="MSShapeGroup" mask="url(#mask-4)"></path>
            <path d="M244.148,62.313 L243.289,62.313 L243.289,52.497 L244.148,52.497 L244.148,62.313 Z M243.162,49.774 C243.162,49.503 243.218,49.291 243.329,49.14 C243.441,48.99 243.584,48.914 243.759,48.914 C243.922,48.914 244.051,48.99 244.148,49.14 C244.245,49.291 244.293,49.503 244.293,49.774 C244.293,50.033 244.245,50.24 244.148,50.393 C244.051,50.547 243.922,50.624 243.759,50.624 C243.584,50.624 243.441,50.547 243.329,50.393 C243.218,50.24 243.162,50.033 243.162,49.774 L243.162,49.774 Z" id="Fill-79" fill="#FEFEFE" sketch:type="MSShapeGroup" mask="url(#mask-4)"></path>
            <path d="M248.2961,61.761 C248.9111,61.761 249.3891,61.458 249.7301,60.852 C250.0711,60.245 250.2411,59.388 250.2411,58.278 L250.2411,57.255 L249.2191,57.31 C248.4291,57.352 247.8421,57.571 247.4591,57.965 C247.0761,58.361 246.8851,58.938 246.8851,59.698 C246.8851,60.41 247.0121,60.932 247.2651,61.264 C247.5181,61.595 247.8621,61.761 248.2961,61.761 L248.2961,61.761 Z M250.3861,62.313 L250.2771,60.938 L250.2411,60.938 C249.7711,61.975 249.0591,62.494 248.1061,62.494 C247.4661,62.494 246.9531,62.239 246.5641,61.729 C246.1741,61.22 245.9801,60.537 245.9801,59.68 C245.9801,58.745 246.2601,58.005 246.8211,57.459 C247.3821,56.913 248.1691,56.616 249.1831,56.568 L250.2411,56.514 L250.2411,55.7 C250.2411,54.783 250.1261,54.115 249.8971,53.696 C249.6681,53.277 249.2881,53.067 248.7571,53.067 C248.1971,53.067 247.6231,53.251 247.0381,53.619 L246.6681,52.94 C247.3491,52.518 248.0641,52.307 248.8111,52.307 C249.6201,52.307 250.2021,52.562 250.5581,53.071 C250.9131,53.581 251.0911,54.433 251.0911,55.627 L251.0911,62.313 L250.3861,62.313 Z" id="Fill-80" fill="#FEFEFE" sketch:type="MSShapeGroup" mask="url(#mask-4)"></path>
        </g>
    </g>
</svg>