<?xml version="1.0" encoding="UTF-8" standalone="no"?>
<svg width="204px" height="204px" viewBox="0 0 204 204" version="1.1" xmlns="http://www.w3.org/2000/svg" xmlns:xlink="http://www.w3.org/1999/xlink" xmlns:sketch="http://www.bohemiancoding.com/sketch/ns">
    <!-- Generator: Sketch 3.4 (15575) - http://www.bohemiancoding.com/sketch -->
    <title>ph-ico-2</title>
    <desc>Created with Sketch.</desc>
    <defs></defs>
    <g id="Page-1" stroke="none" stroke-width="1" fill="none" fill-rule="evenodd" sketch:type="MSPage">
        <g id="ph-ico-2" sketch:type="MSLayerGroup" transform="translate(2.000000, 2.000000)">
            <path d="M200,100 C200,155.228 155.228,200 100,200 C44.772,200 0,155.228 0,100 C0,44.772 44.772,0 100,0 C155.228,0 200,44.772 200,100 L200,100 Z" id="Stroke-1" stroke="#00A0B0" stroke-width="4" sketch:type="MSShapeGroup"></path>
            <path d="M126.6146,134.1456 L68.8526,134.1456 L68.8526,119.9916 L88.2886,100.3376 C93.8416,94.5316 97.4696,90.5656 99.1766,88.4426 C100.8826,86.3196 102.0696,84.4956 102.7426,82.9706 C103.4136,81.4466 103.7496,79.8496 103.7496,78.1796 C103.7496,76.1116 103.0776,74.4776 101.7346,73.2806 C100.3916,72.0826 98.5046,71.4836 96.0736,71.4836 C93.5686,71.4836 91.0376,72.2016 88.4786,73.6336 C85.9206,75.0686 83.0246,77.1816 79.7956,79.9766 L67.9816,66.1486 C72.0826,62.4836 75.5306,59.8606 78.3246,58.2816 C81.1196,56.7036 84.1586,55.4976 87.4436,54.6616 C90.7286,53.8276 94.4216,53.4096 98.5226,53.4096 C103.6766,53.4096 108.2766,54.3166 112.3236,56.1306 C116.3706,57.9466 119.5106,60.5326 121.7426,63.8886 C123.9736,67.2476 125.0906,71.0126 125.0906,75.1856 C125.0906,78.3076 124.6996,81.1936 123.9206,83.8416 C123.1386,86.4916 121.9326,89.0956 120.2996,91.6546 C118.6666,94.2126 116.4976,96.9076 113.7936,99.7386 C111.0896,102.5696 105.3286,107.9416 96.5096,115.8536 L96.5096,116.3976 L126.6146,116.3976 L126.6146,134.1456 Z" id="Fill-3" fill="#00A0B0" sketch:type="MSShapeGroup"></path>
        </g>
    </g>
</svg>