<?xml version="1.0" encoding="UTF-8" standalone="no"?>
<svg width="204px" height="204px" viewBox="0 0 204 204" version="1.1" xmlns="http://www.w3.org/2000/svg" xmlns:xlink="http://www.w3.org/1999/xlink" xmlns:sketch="http://www.bohemiancoding.com/sketch/ns">
    <!-- Generator: Sketch 3.4 (15575) - http://www.bohemiancoding.com/sketch -->
    <title>ph-ico-3</title>
    <desc>Created with Sketch.</desc>
    <defs></defs>
    <g id="Page-1" stroke="none" stroke-width="1" fill="none" fill-rule="evenodd" sketch:type="MSPage">
        <g id="ph-ico-3" sketch:type="MSLayerGroup" transform="translate(2.000000, 2.000000)">
            <path d="M200,100 C200,155.228 155.228,200 100,200 C44.772,200 0,155.228 0,100 C0,44.772 44.772,0 100,0 C155.228,0 200,44.772 200,100 L200,100 Z" id="Stroke-1" stroke="#00A0B0" stroke-width="4" sketch:type="MSShapeGroup"></path>
            <path d="M127.5533,72.7121 C127.5533,77.6491 126.0473,81.8851 123.0343,85.4241 C120.0223,88.9621 115.6663,91.5301 109.9693,93.1271 L109.9693,93.4541 C123.2523,95.1241 129.8953,101.4021 129.8953,112.2901 C129.8953,119.6941 126.9633,125.5201 121.1023,129.7661 C115.2413,134.0131 107.1023,136.1361 96.6853,136.1361 C92.4033,136.1361 88.4383,135.8271 84.7893,135.2101 C81.1423,134.5941 77.1963,133.4681 72.9493,131.8351 L72.9493,113.9791 C76.4333,115.7571 79.9813,117.0731 83.5923,117.9251 C87.2033,118.7781 90.5333,119.2041 93.5823,119.2041 C98.3003,119.2041 101.7393,118.5431 103.8993,117.2181 C106.0583,115.8931 107.1383,113.8151 107.1383,110.9831 C107.1383,108.8071 106.5743,107.1281 105.4503,105.9481 C104.3243,104.7701 102.5103,103.8791 100.0063,103.2801 C97.5023,102.6821 94.2363,102.3821 90.2063,102.3821 L85.3073,102.3821 L85.3073,86.2131 L90.3163,86.2131 C101.2403,86.2131 106.7023,83.4191 106.7023,77.8291 C106.7023,75.7251 105.8943,74.1641 104.2803,73.1481 C102.6643,72.1321 100.4963,71.6231 97.7743,71.6231 C92.6933,71.6231 87.4303,73.3291 81.9863,76.7401 L73.0583,62.3681 C77.2683,59.4651 81.5773,57.3961 85.9883,56.1611 C90.3983,54.9281 95.4503,54.3111 101.1503,54.3111 C109.3883,54.3111 115.8493,55.9431 120.5313,59.2101 C125.2123,62.4771 127.5533,66.9781 127.5533,72.7121" id="Fill-3" fill="#00A0B0" sketch:type="MSShapeGroup"></path>
        </g>
    </g>
</svg>